<?xml version="1.0" encoding="UTF-8"?>
<svg id="Layer_1" data-name="Layer 1" xmlns="http://www.w3.org/2000/svg" viewBox="0 0 1047.8 450.31">
  <defs>
    <style>
      .cls-1 {
        fill: #2f2e41;
      }

      .cls-2 {
        fill: #fff;
      }

      .cls-3 {
        fill: #3f3d56;
      }

      .cls-4 {
        fill: #e6e6e6;
      }

      .cls-5 {
        fill: #081226;
      }

      .cls-6 {
        fill: #ffb8b8;
      }

      .cls-7 {
        fill: #a0616a;
      }

      .cls-8 {
        fill: #ccc;
      }

      .cls-9 {
        fill: #ff6584;
      }

      .cls-10 {
        fill: #b3b3b3;
      }

      .cls-11 {
        fill: #f2f2f2;
      }
    </style>
  </defs>
  <path class="cls-11" d="M29.32,395.47c0-9.48,7.7-17.16,17.18-17.15,9.47,0,17.15,7.68,17.15,17.15"/>
  <path class="cls-8" d="M46.49,395.47c-.26,0-.46-.21-.46-.46v-9.05c0-.26,.21-.46,.46-.47s.46,.21,.47,.46h0v9.05c0,.26-.21,.46-.46,.46Z"/>
  <path class="cls-8" d="M46.48,392.37c-.11,0-.22-.04-.3-.11l-5.57-4.78c-.2-.16-.22-.46-.06-.65,.16-.2,.46-.22,.65-.06,0,0,0,0,0,0l5.57,4.78c.19,.17,.22,.46,.05,.65-.09,.1-.22,.16-.35,.16h0Z"/>
  <path class="cls-11" d="M82.21,395.47c0-9.48,7.7-17.16,17.18-17.15,9.47,0,17.14,7.68,17.15,17.15"/>
  <path class="cls-8" d="M99.37,395.47c-.26,0-.46-.21-.46-.46v-9.05c0-.26,.21-.46,.47-.46,.26,0,.46,.21,.46,.46v9.05c0,.26-.21,.46-.46,.46Z"/>
  <path class="cls-8" d="M99.37,392.37c-.11,0-.22-.04-.3-.11l-5.57-4.78c-.2-.16-.22-.46-.06-.65,.16-.2,.46-.22,.65-.06,0,0,0,0,0,0l5.57,4.78c.19,.17,.22,.46,.05,.65-.09,.1-.22,.16-.35,.16h0Z"/>
  <circle class="cls-11" cx="784.8" cy="34.31" r="33"/>
  <ellipse class="cls-11" cx="108.8" cy="425.31" rx="30" ry="7"/>
  <path class="cls-11" d="M93.48,137.96c7.87-24.57,27.08-43.62,49.86-54.95,27.03-13.45,58.1-14.97,87.45-9.74,31.69,5.65,61.3,18.67,89.97,32.88,28.12,13.94,55.78,28.66,85.02,40.18,58.38,22.97,120.25,35.78,182.95,37.9,56.43,1.88,116.77-4.3,165.08-36.02,44.27-29.06,72.44-77.01,87.12-126.98,1.88-6.4,3.55-12.85,5.01-19.36,.43-1.88-2.47-2.68-2.89-.8-11.84,52.19-37.07,103.77-80.2,137.03-46.64,35.98-107.85,44.3-165.14,43.35-63.38-1.11-126.09-13.21-185.33-35.76-29.99-11.42-58.3-26.25-86.96-40.56-28.03-14-56.86-27.11-87.68-33.56-28.15-5.9-58.29-6.26-85.43,4.24-22.35,8.64-42.72,24.04-54.65,45.1-2.91,5.16-5.28,10.61-7.07,16.26-.59,1.84,2.31,2.63,2.89,.8h0Z"/>
  <path class="cls-3" d="M521.78,367.68c.55,0,1-.45,1-1s-.45-1-1-1h-9.5v-4h9.5c.55,0,1-.45,1-1s-.45-1-1-1h-81c-.55,0-1,.45-1,1s.45,1,1,1h9.5v4h-9.5c-.55,0-1,.45-1,1s.45,1,1,1h9.5v4h-9.5c-.55,0-1,.45-1,1s.45,1,1,1h9.5v4h-8.5c-1.1,0-2,.9-2,2s.9,2,2,2h8.09c-.06,.16-.09,.33-.09,.5v14c0,.83,.67,1.5,1.5,1.5s1.5-.67,1.5-1.5v-14c0-.17-.03-.34-.09-.5h57.18c-.06,.16-.09,.33-.09,.5v14c0,.83,.67,1.5,1.5,1.5s1.5-.67,1.5-1.5v-14c0-.17-.03-.34-.09-.5h8.09c1.1,0,2-.9,2-2s-.9-2-2-2h-8.5v-4h9.5c.55,0,1-.45,1-1s-.45-1-1-1h-9.5v-4h9.5Zm-69.5-6h58v4h-58v-4Zm58,16h-58v-4h58v4Zm0-6h-58v-4h58v4Z"/>
  <path class="cls-4" d="M216.8,325.71c0-17.66-14.33-59.57-32-59.57s-32,41.91-32,59.57,14.33,32,32,32,32-14.33,32-32h0Z"/>
  <path class="cls-11" d="M208.8,325.71c0-17.66-14.33-59.57-32-59.57s-32,41.91-32,59.57,14.33,32,32,32,32-14.33,32-32h0Z"/>
  <path class="cls-8" d="M177.8,397.26c-.55,0-1-.45-1-1v-89.14c0-.55,.45-1,1-1s1,.45,1,1v89.14c0,.55-.45,1-1,1Z"/>
  <path class="cls-8" d="M177.8,321.73c-.55,0-1-.45-1-1,0-.27,.11-.52,.29-.71l13.08-13.08c.39-.39,1.02-.39,1.41,0s.39,1.02,0,1.41l-13.08,13.08c-.19,.19-.44,.29-.71,.29Z"/>
  <path class="cls-3" d="M545.8,397.26c-.55,0-1-.45-1-1v-89.14c0-.55,.45-1,1-1s1,.45,1,1v89.14c0,.55-.45,1-1,1Z"/>
  <path class="cls-4" d="M652.8,325.71c0-17.66-14.33-59.57-32-59.57s-32,41.91-32,59.57,14.33,32,32,32,32-14.33,32-32h0Z"/>
  <path class="cls-11" d="M644.8,325.71c0-17.66-14.33-59.57-32-59.57s-32,41.91-32,59.57,14.33,32,32,32,32-14.33,32-32h0Z"/>
  <path class="cls-8" d="M613.8,397.26c-.55,0-1-.45-1-1v-89.14c0-.55,.45-1,1-1s1,.45,1,1v89.14c0,.55-.45,1-1,1Z"/>
  <path class="cls-8" d="M613.8,321.73c-.55,0-1-.45-1-1,0-.27,.11-.52,.29-.71l13.08-13.08c.39-.39,1.02-.39,1.41,0s.39,1.02,0,1.41l-13.08,13.08c-.19,.19-.44,.29-.71,.29Z"/>
  <path class="cls-4" d="M283.8,51.81h-16c-2.48,0-4.5-2.02-4.5-4.5V10.31c0-2.48,2.02-4.5,4.5-4.5h16c2.48,0,4.5,2.02,4.5,4.5V47.31c0,2.48-2.02,4.5-4.5,4.5Z"/>
  <path class="cls-4" d="M346.8,396.81h-82c-4.69,0-8.49-3.81-8.5-8.5V57.31c0-4.69,3.81-8.49,8.5-8.5h82c4.69,0,8.49,3.81,8.5,8.5V388.31c0,4.69-3.81,8.49-8.5,8.5Z"/>
  <path class="cls-11" d="M297.8,396.81h-82c-4.69,0-8.49-3.81-8.5-8.5V57.31c0-4.69,3.81-8.49,8.5-8.5h82c4.69,0,8.49,3.81,8.5,8.5V388.31c0,4.69-3.81,8.49-8.5,8.5Z"/>
  <path class="cls-11" d="M268.8,51.81h-16c-2.48,0-4.5-2.02-4.5-4.5V10.31c0-2.48,2.02-4.5,4.5-4.5h16c2.48,0,4.5,2.02,4.5,4.5V47.31c0,2.48-2.02,4.5-4.5,4.5Z"/>
  <path class="cls-5" d="M247.8,123.81h-19c-1.38,0-2.5-1.12-2.5-2.5v-29c0-1.38,1.12-2.5,2.5-2.5h19c1.38,0,2.5,1.12,2.5,2.5v29c0,1.38-1.12,2.5-2.5,2.5Z"/>
  <path class="cls-5" d="M284.8,123.81h-19c-1.38,0-2.5-1.12-2.5-2.5v-29c0-1.38,1.12-2.5,2.5-2.5h19c1.38,0,2.5,1.12,2.5,2.5v29c0,1.38-1.12,2.5-2.5,2.5Z"/>
  <path class="cls-5" d="M247.8,176.81h-19c-1.38,0-2.5-1.12-2.5-2.5v-29c0-1.38,1.12-2.5,2.5-2.5h19c1.38,0,2.5,1.12,2.5,2.5v29c0,1.38-1.12,2.5-2.5,2.5Z"/>
  <path class="cls-5" d="M284.8,176.81h-19c-1.38,0-2.5-1.12-2.5-2.5v-29c0-1.38,1.12-2.5,2.5-2.5h19c1.38,0,2.5,1.12,2.5,2.5v29c0,1.38-1.12,2.5-2.5,2.5Z"/>
  <path class="cls-5" d="M247.8,229.81h-19c-1.38,0-2.5-1.12-2.5-2.5v-29c0-1.38,1.12-2.5,2.5-2.5h19c1.38,0,2.5,1.12,2.5,2.5v29c0,1.38-1.12,2.5-2.5,2.5Z"/>
  <path class="cls-5" d="M284.8,229.81h-19c-1.38,0-2.5-1.12-2.5-2.5v-29c0-1.38,1.12-2.5,2.5-2.5h19c1.38,0,2.5,1.12,2.5,2.5v29c0,1.38-1.12,2.5-2.5,2.5Z"/>
  <path class="cls-5" d="M247.8,282.81h-19c-1.38,0-2.5-1.12-2.5-2.5v-29c0-1.38,1.12-2.5,2.5-2.5h19c1.38,0,2.5,1.12,2.5,2.5v29c0,1.38-1.12,2.5-2.5,2.5Z"/>
  <path class="cls-5" d="M284.8,282.81h-19c-1.38,0-2.5-1.12-2.5-2.5v-29c0-1.38,1.12-2.5,2.5-2.5h19c1.38,0,2.5,1.12,2.5,2.5v29c0,1.38-1.12,2.5-2.5,2.5Z"/>
  <path class="cls-5" d="M247.8,335.81h-19c-1.38,0-2.5-1.12-2.5-2.5v-29c0-1.38,1.12-2.5,2.5-2.5h19c1.38,0,2.5,1.12,2.5,2.5v29c0,1.38-1.12,2.5-2.5,2.5Z"/>
  <path class="cls-5" d="M284.8,335.81h-19c-1.38,0-2.5-1.12-2.5-2.5v-29c0-1.38,1.12-2.5,2.5-2.5h19c1.38,0,2.5,1.12,2.5,2.5v29c0,1.38-1.12,2.5-2.5,2.5Z"/>
  <path class="cls-4" d="M696.8,226.81h-16c-2.48,0-4.5-2.02-4.5-4.5v-21c0-2.48,2.02-4.5,4.5-4.5h16c2.48,0,4.5,2.02,4.5,4.5v21c0,2.48-2.02,4.5-4.5,4.5Z"/>
  <path class="cls-4" d="M831.8,397.81h-82c-4.69,0-8.49-3.81-8.5-8.5V230.31c0-4.69,3.81-8.49,8.5-8.5h82c4.69,0,8.49,3.81,8.5,8.5v159c0,4.69-3.81,8.49-8.5,8.5Z"/>
  <path class="cls-11" d="M782.8,397.81h-142c-4.69,0-8.49-3.81-8.5-8.5V230.31c0-4.69,3.81-8.49,8.5-8.5h142c4.69,0,8.49,3.81,8.5,8.5v159c0,4.69-3.81,8.49-8.5,8.5Z"/>
  <path class="cls-11" d="M681.8,226.81h-16c-2.48,0-4.5-2.02-4.5-4.5v-21c0-2.48,2.02-4.5,4.5-4.5h16c2.48,0,4.5,2.02,4.5,4.5v21c0,2.48-2.02,4.5-4.5,4.5Z"/>
  <path class="cls-5" d="M702.8,300.31h-19c-1.38,0-2.5-1.12-2.5-2.5v-29c0-1.38,1.12-2.5,2.5-2.5h19c1.38,0,2.5,1.12,2.5,2.5v29c0,1.38-1.12,2.5-2.5,2.5Z"/>
  <path class="cls-5" d="M739.8,300.31h-19c-1.38,0-2.5-1.12-2.5-2.5v-29c0-1.38,1.12-2.5,2.5-2.5h19c1.38,0,2.5,1.12,2.5,2.5v29c0,1.38-1.12,2.5-2.5,2.5Z"/>
  <path class="cls-5" d="M702.8,353.31h-19c-1.38,0-2.5-1.12-2.5-2.5v-29c0-1.38,1.12-2.5,2.5-2.5h19c1.38,0,2.5,1.12,2.5,2.5v29c0,1.38-1.12,2.5-2.5,2.5Z"/>
  <path class="cls-5" d="M739.8,353.31h-19c-1.38,0-2.5-1.12-2.5-2.5v-29c0-1.38,1.12-2.5,2.5-2.5h19c1.38,0,2.5,1.12,2.5,2.5v29c0,1.38-1.12,2.5-2.5,2.5Z"/>
  <path class="cls-4" d="M1046.8,398.31H1c-.55,0-1-.45-1-1s.45-1,1-1H1046.8c.55,0,1,.45,1,1s-.45,1-1,1Z"/>
  <path class="cls-4" d="M362.8,433.31h-93c-.55,0-1-.45-1-1s.45-1,1-1h93c.55,0,1,.45,1,1s-.45,1-1,1Z"/>
  <path class="cls-4" d="M593.8,433.31h-93c-.55,0-1-.45-1-1s.45-1,1-1h93c.55,0,1,.45,1,1s-.45,1-1,1Z"/>
  <path class="cls-4" d="M824.8,433.31h-93c-.55,0-1-.45-1-1s.45-1,1-1h93c.55,0,1,.45,1,1s-.45,1-1,1Z"/>
  <path class="cls-4" d="M415.8,325.71c0-17.66-14.33-59.57-32-59.57s-32,41.91-32,59.57,14.33,32,32,32,32-14.33,32-32h0Z"/>
  <path class="cls-11" d="M407.8,325.71c0-17.66-14.33-59.57-32-59.57s-32,41.91-32,59.57,14.33,32,32,32,32-14.33,32-32h0Z"/>
  <path class="cls-8" d="M376.8,397.26c-.55,0-1-.45-1-1v-89.14c0-.55,.45-1,1-1s1,.45,1,1v89.14c0,.55-.45,1-1,1Z"/>
  <path class="cls-8" d="M376.8,321.73c-.55,0-1-.45-1-1,0-.27,.11-.52,.29-.71l13.08-13.08c.39-.39,1.02-.39,1.41,0s.39,1.02,0,1.41l-13.08,13.08c-.19,.19-.44,.29-.71,.29Z"/>
  <path class="cls-4" d="M926.8,325.71c0-17.66-14.33-59.57-32-59.57s-32,41.91-32,59.57,14.33,32,32,32,32-14.33,32-32h0Z"/>
  <path class="cls-11" d="M918.8,325.71c0-17.66-14.33-59.57-32-59.57s-32,41.91-32,59.57,14.33,32,32,32,32-14.33,32-32h0Z"/>
  <path class="cls-8" d="M887.8,397.26c-.55,0-1-.45-1-1v-89.14c0-.55,.45-1,1-1s1,.45,1,1v89.14c0,.55-.45,1-1,1Z"/>
  <path class="cls-8" d="M887.8,321.73c-.55,0-1-.45-1-1,0-.27,.11-.52,.29-.71l13.08-13.08c.39-.39,1.02-.39,1.41,0s.39,1.02,0,1.41l-13.08,13.08c-.19,.19-.44,.29-.71,.29Z"/>
  <path class="cls-3" d="M556.8,336.81h-22c-1.38,0-2.5-1.12-2.5-2.5v-22c0-1.38,1.12-2.5,2.5-2.5h22c1.38,0,2.5,1.12,2.5,2.5v22c0,1.38-1.12,2.5-2.5,2.5Z"/>
  <path class="cls-6" d="M770.36,347.52c.91,.24,1.45,1.17,1.21,2.08-.03,.1-.06,.19-.1,.28l4.35,4.19-3.06,.69-3.66-4.09c-.83-.45-1.13-1.49-.68-2.32,.38-.69,1.18-1.04,1.95-.83h0Z"/>
  <path class="cls-2" d="M776.48,358.55l-5.36-5.03c-.31-.29-.32-.77-.03-1.08,0,0,0,0,.01-.01l1.1-1.11c.27-.27,.7-.3,1-.07l4.49,3.44,2.8-6.8c.45-1.08,1.69-1.6,2.77-1.15,.04,.02,.08,.04,.12,.06h0c.84,.41,1.32,1.32,1.16,2.25-.51,3.09-3.59,7.18-5.38,9.35-.5,.6-1.33,.83-2.07,.55-.23-.09-.44-.22-.62-.39Z"/>
  <path class="cls-2" d="M773.47,353.67l-3.95-5.73c-.11-.15-.07-.36,.09-.47l.16-.11c.15-.11,.36-.07,.47,.09l3.95,5.73c.11,.15,.07,.36-.09,.47,0,0,0,0,0,0l-.16,.11c-.15,.11-.36,.07-.47-.09h0Z"/>
  <path class="cls-3" d="M772.36,353.71l-3.28-4.75c-.29-.42-.18-1,.24-1.29l.33-.23,4.33,6.28-.33,.23h0c-.42,.29-1,.18-1.29-.24Z"/>
  <polygon class="cls-6" points="772.76 394.74 770.7 394.51 770.97 386.49 773.67 386.8 772.76 394.74"/>
  <path class="cls-1" d="M773.05,396.8l-6.64-.77v-.08c.17-1.43,1.46-2.45,2.89-2.29h0l4.05,.47-.31,2.67Z"/>
  <polygon class="cls-6" points="796.7 393.22 794.72 393.83 791.42 386.49 794.34 385.58 796.7 393.22"/>
  <path class="cls-1" d="M797.8,394.99l-6.38,1.97-.02-.08c-.42-1.37,.34-2.83,1.72-3.25t0,0h0l3.9-1.2,.79,2.57Z"/>
  <path class="cls-1" d="M770.46,392.9c-.43-.13-.68-.59-.56-1.03l1.24-14.29c.06-.65,.26-1.28,.6-1.84l7.51-12.47,6.72,1.21,.04,.02c3.27,2,6.17,11.7,8.97,21.09,.44,1.46,.89,2.97,1.33,4.41,.17,.43-.03,.91-.46,1.09l-2.04,.86c-.4,.17-.86,0-1.07-.37l-10.46-19.16s-.08-.08-.13-.09c-.05,0-.11,.01-.14,.06l-6.07,6.87-2.23,13.1v.03c-.18,.39-.6,.59-1.01,.48l-2.19,.04h-.01s-.04,0-.04,0Z"/>
  <path class="cls-2" d="M778.88,364.64h-.04s-.01-.06-.01-.06c-.03-.1-3.1-10.5-.34-17.13h0c.08-.16,2.01-3.87,4.26-4.25h.06s.73,1.35,.73,1.35c.23,.23,4.18,4.33,2.39,11.38,.16,.58,2.34,8.51,1.16,9.7-.43,.3-.96,.43-1.48,.37-2.28-.2-4.54-.65-6.72-1.36Z"/>
  <circle class="cls-1" cx="782.29" cy="336.67" r="5.24"/>
  <circle class="cls-6" cx="780.21" cy="337.73" r="4.15"/>
  <path class="cls-1" d="M782.88,341.77c-.38,.13-.84,.25-1.14-.03-.25-.33-.28-.78-.07-1.14,.22-.34,.39-.71,.52-1.09,.08-.59-.15-1.17-.62-1.54-.45-.34-.96-.6-1.5-.76l-2.91-1.03c-.76-.18-1.43-.61-1.9-1.23-.5-1.06-.11-2.34,.91-2.93,1-.5,2.17-.53,3.19-.06,.55,.26,1.12,.49,1.7,.68,1.16,.31,2.49,.03,3.51,.69,.88,.67,1.36,1.73,1.27,2.83-.09,1.09-.38,2.15-.85,3.13-.22,.6-.54,1.17-.95,1.67-.4,.49-1.02,.76-1.66,.72l.49,.1Z"/>
  <circle class="cls-1" cx="786.69" cy="334.13" r="3.38"/>
  <path class="cls-2" d="M781.11,339.04c0-.19,.15-.34,.34-.34s.34,.15,.34,.34c0,.14-.08,.26-.21,.31v.74c0,.07-.06,.13-.13,.13s-.13-.06-.13-.13h0v-.75c-.13-.05-.21-.18-.21-.31Z"/>
  <path class="cls-6" d="M770.57,351.07c.93-.09,1.77,.59,1.86,1.52,0,.1,.01,.2,0,.3l5.54,2.41-2.63,1.71-4.85-2.56c-.93-.13-1.58-1-1.45-1.94,.11-.78,.75-1.38,1.53-1.46Z"/>
  <path class="cls-2" d="M780.14,359.28l-6.78-2.85c-.39-.16-.57-.61-.41-1,0,0,0-.01,0-.02l.64-1.42c.16-.35,.55-.53,.92-.42l5.41,1.65,.26-7.35c.04-1.17,1.02-2.09,2.2-2.05,.05,0,.09,0,.14,0h0c.93,.09,1.7,.78,1.87,1.7,.6,3.08-.86,7.98-1.79,10.64-.26,.74-.96,1.24-1.74,1.24-.25,0-.49-.05-.72-.15Z"/>
  <path class="cls-2" d="M84.79,357.54h-10.39v-3.15c3.28-2.28,6.19-2.09,10.02,.19l.37,2.97Z"/>
  <polygon class="cls-6" points="72 413.54 69.73 413.54 69.39 404.77 72 404.77 72 413.54"/>
  <path class="cls-1" d="M72.58,415.75h-7.33v-.09c0-1.58,1.28-2.85,2.85-2.85h4.48s0,2.95,0,2.95Z"/>
  <polygon class="cls-6" points="84.81 413.54 87.08 413.54 87.42 404.77 84.81 404.77 84.81 413.54"/>
  <path class="cls-1" d="M84.23,412.8h4.48s0,0,0,0c1.58,0,2.85,1.28,2.85,2.85h0v.09h-7.33s0-2.95,0-2.95Z"/>
  <path class="cls-1" d="M84.87,412.42c-.39,0-.73-.27-.81-.65l-5.64-24.58c-.03-.13-.14-.22-.27-.22h0c-.13,0-.25,.09-.27,.22l-5.18,24.42c-.08,.38-.42,.66-.82,.66h-2.47c-.46,0-.83-.37-.83-.83,0-.02,0-.03,0-.05l1.84-30.95,.74-.22h.01s14.51,.13,14.51,.13l3.09,30.91c.04,.46-.29,.87-.75,.91,0,0,0,0-.01,0l-3.08,.25s-.04,0-.07,0Z"/>
  <circle class="cls-6" cx="78.87" cy="347.33" r="4.56"/>
  <path class="cls-3" d="M76.08,383.83c-.8,0-1.6-.1-2.36-.33-1.38-.41-2.52-1.38-3.16-2.67-.1-.19-.12-.41-.06-.62,.5-1.71,2.93-10.63,1.38-17.71-.44-1.99-.06-4.07,1.07-5.77,1.1-1.69,2.83-2.85,4.81-3.23h0c.26-.05,.52-.09,.77-.12,2.19-.27,4.38,.45,5.98,1.97,1.65,1.55,2.52,3.75,2.38,6l-1.19,19.1c-.02,.29-.19,.55-.44,.69-1.37,.72-5.49,2.7-9.17,2.7Z"/>
  <path class="cls-1" d="M84.02,343.98c-.98-2.45-3.53-3.89-6.13-3.45l1.44,1.16c-1.78,.06-3.66-.07-4.94,1.18,.41-.01,.94,.86,1.34,.85-.77,.05-1.46,.52-1.78,1.23-.31,.7-.38,1.48-.21,2.22,.46,1.1,.99,2.16,1.6,3.18-.05-1.81,3.51-6.13,5.26-5.68-.89,.33-1.65,.91-2.21,1.68,1.19-.6,2.53-.82,3.84-.63,.3,.07,.61,.09,.92,.05,.61-.12,1-.71,.88-1.31-.03-.17-.11-.33-.22-.47h.21Z"/>
  <path class="cls-2" d="M75.77,382.68c-.12,0-.23-.02-.33-.07l-8.64-3.77c-.38-.16-.58-.58-.47-.98l5.72-21.61c.44-1.67,2.15-2.67,3.82-2.22,.02,0,.04,.01,.06,.02l2.29,.65-1.61,27.2c-.02,.27-.17,.52-.4,.66-.13,.08-.28,.12-.43,.12Z"/>
  <path class="cls-2" d="M91.77,377.86l-.38-1.43-.55-2.08-.27-1-.55-2.08-3.97-15.02c-.44-1.67-2.15-2.66-3.82-2.23-.02,0-.04,.01-.07,.02l-2.29,.65,1.13,19.13,.12,2,.07,1.26h0s.12,1.99,.12,1.99l.17,2.82c.03,.44,.39,.78,.83,.79,.11,0,.23-.02,.33-.07l8.64-3.77c.38-.16,.58-.58,.47-.98Z"/>
  <polygon class="cls-8" points="90.57 373.34 81.12 375.82 81.01 373.82 90.02 371.26 90.57 373.34"/>
  <polygon class="cls-8" points="91.39 376.42 81.32 379.07 81.2 377.08 81.2 377.08 90.83 374.34 91.39 376.42"/>
  <polygon class="cls-8" points="76.96 374.25 76.85 376.21 67.58 373.45 68.12 371.4 76.96 374.25"/>
  <polygon class="cls-8" points="76.77 377.5 67.32 374.45 66.77 376.51 76.65 379.45 76.77 377.5"/>
  <path class="cls-6" d="M67.48,379.55c1.06-.28,1.7-1.37,1.42-2.43-.03-.11-.07-.22-.12-.33l4.44-13.95-3.15-.66-4.07,13.68c-.97,.53-1.33,1.74-.8,2.72,.44,.81,1.38,1.22,2.28,.98Z"/>
  <path class="cls-3" d="M73.36,355.98h0c.9,.09,1.41,1.11,1.19,2.38l-1.08,6.08c-.08,.46-.46,.82-.77,.74l-3.65-.91c-.28-.07-.38-.47-.23-.87l2.19-5.5c.3-1.07,1.24-1.83,2.34-1.91Z"/>
  <path class="cls-2" d="M78.86,338.81h0c3.21,0,5.83,2.55,5.93,5.75h1.12c.2,0,.37,.17,.37,.37v1.48c0,.2-.17,.37-.37,.37h-12.61c-.2,0-.37-.17-.37-.37v-1.67c0-3.28,2.66-5.93,5.93-5.93h0Z"/>
  <path class="cls-4" d="M79.57,375.49h-2.62c-.17,0-.32-.13-.34-.31l-.52-5.38h4.34l-.52,5.38c-.02,.17-.16,.31-.34,.31Z"/>
  <path class="cls-8" d="M80.42,370.49h-4.33c-.19,0-.34-.15-.34-.34v-.81c0-.19,.15-.34,.34-.34h4.33c.19,0,.34,.15,.34,.34v.81c0,.19-.15,.34-.34,.34Z"/>
  <path class="cls-6" d="M78.31,372.61c.1,.01,.2,.03,.3,.06l6.98-5.99-.41-2.2,3.24-1.05,1.1,3.82c.18,.63-.08,1.31-.63,1.66l-8.84,5.6c.02,1.08-.84,1.96-1.92,1.98-1.08,.02-1.96-.84-1.98-1.92s.84-1.96,1.92-1.98c.08,0,.16,0,.24,.01h0Z"/>
  <path class="cls-3" d="M85.61,356.48h0c.97-.27,1.93,.47,2.26,1.72l1.55,6.01c.12,.45-.11,.93-.46,.98l-4.14,.6c-.32,.05-.6-.28-.61-.71l-.16-5.92c-.13-1.14,.51-2.23,1.56-2.68Z"/>
  <path class="cls-4" d="M132.64,372.76h-3.15c-.21,0-.38-.16-.4-.37l-.63-6.46h5.22l-.63,6.46c-.02,.21-.2,.37-.4,.37Z"/>
  <path class="cls-8" d="M133.67,366.74h-5.2c-.22,0-.41-.18-.41-.41v-.98c0-.22,.18-.41,.41-.41h5.2c.22,0,.41,.18,.41,.41v.98c0,.22-.18,.41-.41,.41Z"/>
  <path class="cls-8" d="M163.58,410.71c-2.29-3.04-4.1-6.42-5.36-10.01-.15-.44,.04-.93,.45-1.15l7.83-4.2c.26-.14,.56-.15,.83-.03,.27,.12,.47,.36,.55,.64,.91,3.46,2.62,6.66,5,9.33,.2,.22,.28,.52,.23,.81-.05,.29-.23,.54-.49,.67l-7.83,4.2c-.41,.22-.93,.11-1.21-.26Z"/>
  <path class="cls-2" d="M164.12,410.3c.09,.11,.24,.14,.36,.07l7.83-4.2c.08-.04,.13-.11,.15-.2,.02-.09-.01-.18-.07-.25-2.45-2.75-4.21-6.05-5.15-9.61-.02-.09-.08-.16-.17-.2-.08-.04-.17-.03-.25,.01l-7.83,4.2c-.12,.07-.18,.21-.14,.34,1.24,3.53,3.02,6.84,5.27,9.83h0Z"/>
  <path class="cls-8" d="M167.02,401.33l-4.27,1.88c-.34,.15-.73,0-.88-.34l-.11-.24c-.15-.34,0-.73,.34-.88l4.27-1.88c.34-.15,.73,0,.88,.34l.11,.24c.15,.34,0,.73-.34,.88Z"/>
  <path class="cls-8" d="M168.58,404.23l-4.27,1.88c-.34,.15-.73,0-.88-.34l-.11-.24c-.15-.34,0-.73,.34-.88l4.27-1.88c.34-.15,.73,0,.88,.34l.11,.24c.15,.34,0,.73-.34,.88Z"/>
  <path class="cls-7" d="M158.57,401.82c-1.11-.72-1.43-2.2-.72-3.31,.08-.12,.16-.23,.26-.33l-1.8-25.53,5.18,.5,.14,25c.91,.97,.87,2.49-.1,3.4-.81,.76-2.04,.87-2.97,.27Z"/>
  <path class="cls-3" d="M157.49,381.22c-.25-.18-.4-.46-.41-.76l-.38-6.88c-.08-1.52,1.08-2.83,2.61-2.91,1.3-.07,2.48,.78,2.82,2.04l1.67,6.15c.14,.53-.17,1.08-.71,1.23l-4.74,1.29c-.29,.08-.6,.02-.85-.15Z"/>
  <polygon class="cls-7" points="148.66 433.2 145.93 433.2 144.63 422.66 148.66 422.66 148.66 433.2"/>
  <path class="cls-1" d="M143.37,432.42h5.88v3.32h-8.59v-.61c0-1.5,1.21-2.71,2.71-2.71h0Z"/>
  <polygon class="cls-7" points="158.91 433.2 156.18 433.2 154.88 422.66 158.91 422.66 158.91 433.2"/>
  <path class="cls-1" d="M153.62,432.42h5.88v3.32h-8.59v-.61c0-1.5,1.21-2.71,2.71-2.71h0Z"/>
  <path class="cls-1" d="M148.53,427.89l-3.01-.14c-.53-.03-.95-.46-.96-.99-.79-12.24-1.89-25.36-.21-30.43,0-.55,.44-1.01,1-1.01,.05,0,.1,0,.15,.01l12.03,1.75c.49,.07,.86,.49,.86,.98,1.54,6,1.61,16.89,1.55,28.19,0,.55-.44,1.01-1,1.01h-3.25c-.49,0-.92-.36-.99-.85l-2-12.72c-.07-.43-.47-.72-.89-.65-.35,.05-.61,.33-.65,.68l-1.59,13.28c-.06,.5-.49,.88-1,.88-.02,0-.03,0-.05,0Z"/>
  <path class="cls-3" d="M150.65,398.06c-1.76-1.03-3.7-1.7-5.72-1.96-.27-.03-.51-.16-.68-.37-.17-.21-.24-.49-.21-.76l2.88-21.4c.34-2.55,1.97-4.73,4.31-5.78,2.27-1.04,4.92-.84,7,.55,.1,.07,.2,.13,.29,.2,2.41,1.76,3.52,4.8,2.82,7.7-1.77,7.23-2.38,19.09-2.48,21.39-.02,.4-.27,.75-.65,.89-1.09,.4-2.24,.6-3.39,.6-1.46,0-2.89-.36-4.17-1.06Z"/>
  <circle class="cls-7" cx="153.06" cy="359.4" r="5.47"/>
  <path class="cls-1" d="M156.93,363.73c-.66,.72-1.78,.76-2.5,.09-.3-.28-.5-.66-.55-1.08-.01-.12,0-.23,0-.35,.2-.63,.32-1.29,.36-1.95-.02-.17-.09-.34-.19-.48-.81-1.09-2.72,.49-3.49-.5-.47-.6,.08-1.56-.28-2.23-.48-.89-1.89-.45-2.77-.94-.99-.54-.93-2.06-.28-2.98,.85-1.1,2.16-1.76,3.55-1.81,1.38-.03,2.75,.23,4.01,.78,1.49,.49,2.81,1.4,3.79,2.63,1.02,1.63,1.26,3.63,.65,5.46-.54,1.26-1.31,2.39-2.29,3.34Z"/>
  <path class="cls-2" d="M161.26,369.05c-.1-.45-.92-1.07-2.09-1.57-3.84-1.55-8.18-1.18-11.7,1-.25,.01-.46,.19-.51,.43l-3.96,17.5-.51,2.28-.34,1.51-.51,2.27-.27,1.21c-.07,.3,.12,.6,.42,.67,.02,0,.05,0,.07,.01l17.09,1.48s.03,0,.05,0c.29,0,.53-.23,.55-.52l.16-2.48,.17-2.65,.08-1.15,.17-2.64,1.14-17.34v-.02h0Z"/>
  <path class="cls-7" d="M133.23,370.15c.03,.12,.05,.24,.05,.37l9.57,5.52,2.33-1.34,2.48,3.25-4.98,3.55-10.92-8.61c-1.21,.45-2.56-.17-3-1.38s.17-2.56,1.38-3.01c1.21-.45,2.56,.17,3,1.38,.03,.09,.06,.18,.08,.28Z"/>
  <path class="cls-3" d="M143.19,375.57c-.03-.3,.07-.6,.29-.81l4.87-4.87c1.08-1.08,2.83-1.08,3.91,0,.92,.92,1.07,2.36,.36,3.46l-3.47,5.35c-.3,.46-.92,.6-1.39,.3l-4.12-2.68c-.25-.16-.42-.43-.45-.74Z"/>
  <polygon class="cls-8" points="160.13 386.42 159.96 389.07 142.49 388.7 143 386.42 160.13 386.42"/>
  <polygon class="cls-8" points="159.88 390.21 159.71 392.86 141.63 392.49 142.15 390.21 159.88 390.21"/>
  <path class="cls-2" d="M153.16,348.77h0c-3.85,0-7.01,3.06-7.12,6.91h-1.34c-.25,0-.45,.2-.45,.45v1.78c0,.25,.2,.45,.45,.45h15.15c.25,0,.45-.2,.45-.45h0v-2.01c0-3.94-3.19-7.13-7.13-7.13h0Z"/>
  <path class="cls-9" d="M193.3,421.31h-1.53c0-.19-2.06-5-2.06-5l-1.24-3-.82-2-1.24-3-1.42-3.45c-.09-.38-.47-.62-.85-.53-.26,.06-.47,.27-.53,.53l-1.42,3.45-1.24,3-.82,2-1.24,3s-2.05,4.81-2.06,5h-1.53c-.83,0-1.5,.67-1.5,1.5s.67,1.5,1.5,1.5h18c.83,0,1.5-.67,1.5-1.5s-.67-1.5-1.5-1.5Z"/>
  <path class="cls-9" d="M192.3,447.31h-.59c.05-.13-2.58-6.86-2.58-6.86l-1.58-3.85-1.06-2.58-1.58-3.85-1.72-4.17c-.12-.49-.61-.78-1.1-.66-.33,.08-.58,.34-.66,.66l-1.72,4.17-1.58,3.85-1.07,2.58-1.58,3.85s-2.62,6.73-2.57,6.86h-.61c-.83,0-1.5,.67-1.5,1.5s.67,1.5,1.5,1.5h20c.83,0,1.5-.67,1.5-1.5s-.67-1.5-1.5-1.5Z"/>
  <polygon class="cls-11" points="187.65 411.31 180.95 411.31 182.18 408.31 186.4 408.31 187.65 411.31"/>
  <polygon class="cls-11" points="189.71 416.31 178.88 416.31 180.12 413.31 188.46 413.31 189.71 416.31"/>
  <polygon class="cls-11" points="186.49 434.02 178.12 434.02 179.71 430.17 184.9 430.17 186.49 434.02"/>
  <polygon class="cls-11" points="189.12 440.45 175.48 440.45 177.05 436.6 187.54 436.6 189.12 440.45"/>
  <path class="cls-6" d="M412.98,364.05c.58-.58,.59-1.52,.01-2.1-.06-.06-.13-.12-.2-.17l-.75-4.95-3.08,.97,1.69,4.41c-.43,.7-.21,1.62,.5,2.05,.59,.36,1.35,.27,1.84-.22h0Z"/>
  <path class="cls-2" d="M409.81,361.73l-1.9-8.88c-.38-1.73,.17-3.53,1.45-4.75,2.43-2.34,5.56-5.3,6.64-6.07,1.01-.72,2.24-1.08,3.48-1.03h.03s1.64,1.55,1.64,1.55l-3.56,5.86-5.41,3.39,.6,8.7-2.97,1.22Z"/>
  <path class="cls-8" d="M408.49,349.66h7.98c.35,0,.63,.28,.63,.63h0c0,.35-.28,.63-.63,.63h-7.98c-.35,0-.63-.28-.63-.63h0c0-.35,.28-.63,.63-.63Z"/>
  <path class="cls-8" d="M408.49,363.27h7.98c.35,0,.63,.28,.63,.63h0c0,.35-.28,.63-.63,.63h-7.98c-.35,0-.63-.28-.63-.63h0c0-.35,.28-.63,.63-.63Z"/>
  <path class="cls-8" d="M412.55,397.37c-.16,0-.3-.12-.31-.29l-3.99-46.77c-.02-.17,.11-.32,.28-.34,.17-.02,.32,.11,.34,.28l3.67,43.21,3.57-43.21c.01-.17,.17-.3,.34-.28,.17,.01,.3,.17,.28,.34l-3.87,46.77c-.01,.16-.15,.29-.31,.29h0Z"/>
  <circle class="cls-6" cx="421.51" cy="335.03" r="4.1"/>
  <polygon class="cls-6" points="409.27 395.5 407.32 394.88 408.79 387.05 411.67 387.97 409.27 395.5"/>
  <path class="cls-1" d="M409.16,397.23l-6.28-2,.05-.16c.42-1.3,1.81-2.02,3.11-1.61l3.93,1.25-.8,2.52Z"/>
  <polygon class="cls-6" points="423.48 395.46 421.43 395.46 420.45 387.55 423.48 387.55 423.48 395.46"/>
  <path class="cls-1" d="M417.55,397.28h6.28v-2.33h-3.97c-1.28,0-2.32,1.04-2.32,2.32h0Z"/>
  <path class="cls-1" d="M423.41,392.89l-.69-.1c-.87-.05-1.73-.21-2.56-.48-.17-.07-.18-1.2-.08-7.55,.07-4.66,.17-10.45-.01-13.57-.02-.3-.28-.53-.58-.51-.21,.01-.39,.14-.47,.33-1.56,3.6-4.18,11.67-5.91,17-.6,1.86-1.08,3.32-1.38,4.2-.12,.34-.48,.54-.84,.45-1.43-.36-1.33-.51-3.36-1.03-.37-.09-.59-.46-.51-.83,.37-1.73,7.09-29.81,7.6-32.48,.07-.38,.44-.63,.82-.56,0,0,0,0,0,0,1.51,.3,2.43,.63,3.93,.94,1.61,.34,3.28,.69,4.91,1.01h0c.16,.03,.31,.12,.41,.25,.45,.48,1.01,.86,1.63,1.1,.43,.2-.54,.19-.17,.48,1.5,1.19-.66,25.35-1.96,30.81-.09,.35-.43,.58-.79,.53h0Z"/>
  <path class="cls-1" d="M423.25,338.62c-.24-1.02,.97-3.2,.73-4.22-.16-.69-1.78-.22-2.16-.82-.36-.63-1-1.03-1.72-1.09-.81,0-1.61,.59-2.38,.33-.76-.38-1.07-1.3-.69-2.06,0,0,0-.01,0-.02,.41-.72,1.05-1.28,1.82-1.6,1.21-.74,2.65-.98,4.04-.68,.79,.31,1.52,.76,2.14,1.34,.62,.46,1.17,1.01,1.62,1.64,.78,1.33,.8,2.97,.07,4.33-.75,1.33-1.94,2.36-3.37,2.9"/>
  <path class="cls-2" d="M413.18,362.28c.44-.74,1.12-4.21,1.94-10.03,.56-3.97,1.06-8.01,1.3-10.07,.04-.34,.25-.63,.56-.78,.16-.08,.32-.15,.47-.22,3.84-1.76,8.35-1.12,11.55,1.62l.02,.02v.02s.86,4.61-.88,7.7c-1.71,3.05-1.73,11.11-1.73,11.19v.1l-.1-.03c-2.66-.76-12.96,.57-13.06,.58l-.16,.02,.08-.14Z"/>
  <path class="cls-8" d="M420.69,351.7h7.98c.35,0,.63,.28,.63,.63h0c0,.35-.28,.63-.63,.63h-7.98c-.35,0-.63-.28-.63-.63h0c0-.35,.28-.63,.63-.63Z"/>
  <path class="cls-8" d="M420.69,365.31h7.98c.35,0,.63,.28,.63,.63h0c0,.35-.28,.63-.63,.63h-7.98c-.35,0-.63-.28-.63-.63h0c0-.35,.28-.63,.63-.63Z"/>
  <path class="cls-8" d="M424.75,397.53c-.16,0-.3-.12-.31-.29l-3.99-44.89c-.02-.17,.11-.32,.28-.34,.17-.02,.32,.11,.34,.28h0l3.67,41.34,3.57-41.33c.01-.17,.17-.3,.34-.28,.17,.01,.3,.17,.28,.34l-3.87,44.89c-.01,.16-.15,.29-.31,.29h0Z"/>
  <path class="cls-6" d="M422.18,365.5c-.18-.8,.33-1.59,1.13-1.77,.09-.02,.17-.03,.26-.03l3.32-3.74,2.06,2.49-3.82,2.79c-.02,.82-.71,1.48-1.53,1.45-.69-.02-1.28-.51-1.42-1.18h0Z"/>
  <path class="cls-2" d="M424.11,362.9l5.23-6.98-2.7-5.78,.2-6.86,2.21-.41h.02c1.07,.64,1.91,1.61,2.37,2.77,.49,1.23,1.51,5.41,2.28,8.7,.41,1.72-.11,3.53-1.36,4.78l-6.42,6.42-1.83-2.64Z"/>
  <path class="cls-8" d="M402.17,395.59l7.16,1.72c.29,.08,.59-.06,.71-.33l6.15-16.35c.05-.13,.06-.27,0-.4-.06-.14-.18-.25-.33-.31l-5.38-2.06c-.17-.07-.36-.06-.53,.03-.14,.07-.25,.2-.29,.35h0s-3.8,14.41-3.8,14.41h-.06c-1.18,.07-2.3,.54-3.18,1.33-.37,.45-.54,1.02-.46,1.6Z"/>
  <rect class="cls-10" x="410.45" y="383.64" width=".31" height="6.56" transform="translate(-17.41 754.5) rotate(-83.95)"/>
  <rect class="cls-10" x="409.19" y="387.44" width=".31" height="5.76" transform="translate(-114.57 603.47) rotate(-65.78)"/>
  <polygon class="cls-10" points="414.57 384.92 408.38 382.87 408.51 382.59 414.7 384.64 414.57 384.92"/>
  <polygon class="cls-10" points="415.2 383.51 409.01 380.52 409.13 380.24 415.33 383.23 415.2 383.51"/>
  <rect class="cls-10" x="408.21" y="390.54" width=".31" height="5.87" transform="translate(-156.05 448.41) rotate(-49.49)"/>
  <rect class="cls-10" x="405.57" y="392.58" width=".31" height="4.34" transform="translate(-126.81 202.8) rotate(-24.39)"/>
  <path class="cls-7" d="M579.47,365.36c-1-.23-1.63-1.23-1.39-2.24,.02-.11,.06-.21,.1-.31l-6.87-15.52,3.93-.99,5.52,15.56c.92,.47,1.29,1.6,.82,2.52-.39,.77-1.26,1.17-2.1,.97Z"/>
  <path class="cls-2" d="M572.59,352.16c-.22-.1-.39-.29-.46-.52l-1.2-4.02c-.55-1.16-.05-2.54,1.11-3.09,1.16-.55,2.54-.05,3.09,1.11l2.32,3.51c.25,.38,.15,.9-.24,1.16-.03,.02-.07,.04-.11,.06l-3.82,1.79c-.22,.1-.47,.11-.7,0Z"/>
  <path class="cls-3" d="M586.57,350.16l-4.21,2.98c-.11,.08-.26,.08-.37,0l-1.14-.85c-.14-.1-.17-.3-.07-.44,.01-.02,.03-.04,.05-.05l3.24-2.89c.09-.08,.21-.1,.32-.06l2.11,.75c.16,.06,.25,.24,.19,.41-.02,.06-.06,.11-.11,.15Z"/>
  <path class="cls-2" d="M586.23,349.88c.02-.06,0-.12-.07-.15l-1.9-.68s-.08,0-.11,.02l-2.92,2.61-.02,.02s-.02,.12,.02,.15c0,0,0,0,0,0l1.02,.77s.09,.03,.13,0l3.8-2.69s.03-.03,.04-.05Z"/>
  <polygon class="cls-7" points="571.21 394.63 573.34 394.63 574.35 386.43 571.21 386.43 571.21 394.63"/>
  <path class="cls-1" d="M570.67,393.93h4.19s0,0,0,0c1.47,0,2.67,1.19,2.67,2.67h0v.09h-6.86s0-2.75,0-2.75Z"/>
  <polygon class="cls-7" points="564.1 394.63 566.23 394.63 567.24 386.43 564.1 386.43 564.1 394.63"/>
  <path class="cls-1" d="M563.56,393.93h4.19s0,0,0,0c1.47,0,2.67,1.19,2.67,2.67h0v.09h-6.86s0-2.75,0-2.75Z"/>
  <path class="cls-1" d="M563.65,392.12c-.15-.17-.23-.38-.23-.6-.51-5.21,.87-32.63,4.06-34.97l.02-.02,9.33-1.61h0l.17,.17c.01,.24,1.71,24.27-2.97,36.53-.12,.3-.41,.5-.73,.5h-1.86c-.43,0-.78-.35-.78-.78,0-.02,0-.04,0-.06l1.51-22.96c.01-.14-.1-.27-.24-.28-.13-.01-.25,.08-.28,.2l-4.25,23.3c-.07,.34-.36,.59-.7,.61l-2.45,.18s-.04,0-.06,0c-.21,0-.4-.08-.55-.22Z"/>
  <circle class="cls-7" cx="575.92" cy="336.61" r="4.26"/>
  <path class="cls-2" d="M565.67,360.28c-.18-.18-.28-.43-.29-.68l1.74-8.14c-1.39-5.9,.46-7,2.54-8.12h-.01s.87-2.36,.87-2.36c.1-.39,.51-.63,.9-.52,.04,.01,.09,.03,.13,.05l4.44,2.36c.2,.11,.35,.3,.41,.52,.08,.23,.07,.49-.01,.72l-.33,.89c.85,1.13,2.16,5.61,.77,7.35l1.05,5.78c.05,.44-.23,.85-.65,.97l-10.94,1.4s-.09,.01-.13,.01c-.18,0-.36-.08-.49-.21Z"/>
  <path class="cls-7" d="M581.59,350.95c-.07,.07-.13,.14-.19,.21l-8.58-.59-.92-1.88-3.01,1.02,1.31,3.48c.22,.58,.79,.94,1.4,.9l9.76-.74c.59,.82,1.73,1,2.54,.41,.82-.59,1-1.73,.41-2.54s-1.73-1-2.54-.41c-.06,.04-.12,.09-.17,.14Z"/>
  <path class="cls-2" d="M572.5,350.59l-3.74,1.25c-.41,.14-.85-.09-.99-.49-.01-.04-.02-.07-.03-.11l-.68-3.87c-.37-1.14,.24-2.36,1.38-2.74s2.36,.24,2.74,1.38l1.77,3.49c.19,.38,.04,.85-.34,1.05-.03,.02-.07,.03-.11,.04h0Z"/>
  <circle class="cls-1" cx="573.53" cy="329.78" r="3.47"/>
  <path class="cls-1" d="M579.96,337.14c.34,.07,.68,.04,1-.08,.33-.19,.55-.52,.6-.9,.65-4.29-3.01-3.94-3.44-4.13-.27-.16-.53-.35-.76-.56-.61-.34-1.3-.49-1.99-.44-.82-.08-1.65,.03-2.42,.3-.68,.32-1.24,.84-1.61,1.49-.37,.65-.64,1.34-.8,2.07-.26,.82-.3,1.69-.14,2.54,.36,1.29,1.51,2.21,2.85,2.28-.22-1.04,.29-2.09,1.24-2.57,.73-.36,1.57-.46,2.36-.28,.52,.1,1.04,.17,1.57,.2,.52,.02,1.14,.05,1.55,.09Z"/>
  <path class="cls-11" d="M913.32,395.47c.01-9.48,7.71-17.16,17.19-17.14,9.46,.01,17.13,7.68,17.14,17.14"/>
  <path class="cls-8" d="M930.49,395.47c-.26,0-.46-.21-.46-.46v-9.05c0-.26,.21-.46,.47-.46,.26,0,.46,.21,.46,.46v9.05c0,.26-.21,.46-.46,.46Z"/>
  <path class="cls-8" d="M930.48,392.37c-.11,0-.22-.04-.3-.11l-5.57-4.78c-.2-.16-.22-.46-.06-.65s.46-.22,.65-.06c0,0,0,0,0,0l5.57,4.78c.19,.17,.22,.46,.05,.65-.09,.1-.22,.16-.35,.16h0Z"/>
  <path class="cls-11" d="M966.21,395.47c.01-9.48,7.71-17.16,17.19-17.14,9.46,.01,17.13,7.68,17.14,17.14"/>
  <path class="cls-8" d="M983.37,395.47c-.26,0-.46-.21-.46-.46h0v-9.05c0-.26,.21-.46,.47-.46,.26,0,.46,.21,.46,.46v9.05c0,.26-.21,.46-.46,.46Z"/>
  <path class="cls-8" d="M983.37,392.37c-.11,0-.22-.04-.3-.11l-5.57-4.78c-.2-.16-.22-.46-.06-.65s.46-.22,.65-.06c0,0,0,0,0,0l5.57,4.78c.19,.17,.22,.46,.05,.65-.09,.1-.22,.16-.35,.16h0Z"/>
</svg>