<svg width="130" height="38" viewBox="0 0 130 38" fill="none" xmlns="http://www.w3.org/2000/svg">
<path d="M43.7568 12.0264H45.8193C45.7119 13.0146 45.429 13.8991 44.9707 14.6797C44.5124 15.4603 43.8643 16.0798 43.0264 16.5381C42.1885 16.9893 41.1429 17.2148 39.8896 17.2148C38.973 17.2148 38.1387 17.043 37.3867 16.6992C36.6419 16.3555 36.001 15.8685 35.4639 15.2383C34.9268 14.6009 34.5114 13.8382 34.2178 12.9502C33.9313 12.055 33.7881 11.0596 33.7881 9.96387V8.40625C33.7881 7.31055 33.9313 6.31868 34.2178 5.43066C34.5114 4.53548 34.9303 3.76921 35.4746 3.13184C36.026 2.49447 36.6885 2.00391 37.4619 1.66016C38.2354 1.31641 39.1055 1.14453 40.0723 1.14453C41.2539 1.14453 42.2529 1.36654 43.0693 1.81055C43.8857 2.25456 44.5195 2.87044 44.9707 3.6582C45.429 4.4388 45.7119 5.34473 45.8193 6.37598H43.7568C43.6566 5.64551 43.4704 5.01888 43.1982 4.49609C42.9261 3.96615 42.5394 3.55794 42.0381 3.27148C41.5368 2.98503 40.8815 2.8418 40.0723 2.8418C39.3776 2.8418 38.7653 2.97428 38.2354 3.23926C37.7126 3.50423 37.2721 3.88021 36.9141 4.36719C36.5632 4.85417 36.2982 5.43783 36.1191 6.11816C35.9401 6.7985 35.8506 7.55404 35.8506 8.38477V9.96387C35.8506 10.7301 35.9294 11.4499 36.0869 12.123C36.2516 12.7962 36.4987 13.387 36.8281 13.8955C37.1576 14.404 37.5765 14.805 38.085 15.0986C38.5934 15.3851 39.195 15.5283 39.8896 15.5283C40.7705 15.5283 41.4723 15.3887 41.9951 15.1094C42.5179 14.8301 42.9118 14.429 43.1768 13.9062C43.4489 13.3835 43.6423 12.7568 43.7568 12.0264ZM47.8174 11.3174V11.0703C47.8174 10.2324 47.9391 9.4554 48.1826 8.73926C48.4261 8.01595 48.777 7.38932 49.2354 6.85938C49.6937 6.32227 50.2487 5.9069 50.9004 5.61328C51.5521 5.3125 52.2826 5.16211 53.0918 5.16211C53.9082 5.16211 54.6423 5.3125 55.2939 5.61328C55.9528 5.9069 56.5114 6.32227 56.9697 6.85938C57.4352 7.38932 57.7897 8.01595 58.0332 8.73926C58.2767 9.4554 58.3984 10.2324 58.3984 11.0703V11.3174C58.3984 12.1553 58.2767 12.9323 58.0332 13.6484C57.7897 14.3646 57.4352 14.9912 56.9697 15.5283C56.5114 16.0583 55.9564 16.4736 55.3047 16.7744C54.6602 17.068 53.9297 17.2148 53.1133 17.2148C52.2969 17.2148 51.5628 17.068 50.9111 16.7744C50.2594 16.4736 49.7008 16.0583 49.2354 15.5283C48.777 14.9912 48.4261 14.3646 48.1826 13.6484C47.9391 12.9323 47.8174 12.1553 47.8174 11.3174ZM49.8047 11.0703V11.3174C49.8047 11.8975 49.8727 12.4453 50.0088 12.9609C50.1449 13.4694 50.349 13.9206 50.6211 14.3145C50.9004 14.7083 51.2477 15.0199 51.6631 15.249C52.0785 15.471 52.5618 15.582 53.1133 15.582C53.6576 15.582 54.1338 15.471 54.542 15.249C54.9574 15.0199 55.3011 14.7083 55.5732 14.3145C55.8454 13.9206 56.0495 13.4694 56.1855 12.9609C56.3288 12.4453 56.4004 11.8975 56.4004 11.3174V11.0703C56.4004 10.4974 56.3288 9.95671 56.1855 9.44824C56.0495 8.93262 55.8418 8.47786 55.5625 8.08398C55.2904 7.68294 54.9466 7.36784 54.5312 7.13867C54.123 6.90951 53.6432 6.79492 53.0918 6.79492C52.5475 6.79492 52.0677 6.90951 51.6523 7.13867C51.2441 7.36784 50.9004 7.68294 50.6211 8.08398C50.349 8.47786 50.1449 8.93262 50.0088 9.44824C49.8727 9.95671 49.8047 10.4974 49.8047 11.0703ZM62.8779 7.8584V17H60.8906V5.37695H62.7705L62.8779 7.8584ZM62.4053 10.748L61.5781 10.7158C61.5853 9.9209 61.7035 9.18685 61.9326 8.51367C62.1618 7.83333 62.484 7.24251 62.8994 6.74121C63.3148 6.23991 63.8089 5.85319 64.3818 5.58105C64.9619 5.30176 65.6029 5.16211 66.3047 5.16211C66.8776 5.16211 67.3932 5.24089 67.8516 5.39844C68.3099 5.54883 68.7002 5.79232 69.0225 6.12891C69.3519 6.46549 69.6025 6.90234 69.7744 7.43945C69.9463 7.9694 70.0322 8.61751 70.0322 9.38379V17H68.0342V9.3623C68.0342 8.75358 67.9447 8.2666 67.7656 7.90137C67.5866 7.52897 67.3252 7.26042 66.9814 7.0957C66.6377 6.92383 66.2152 6.83789 65.7139 6.83789C65.2197 6.83789 64.7686 6.94173 64.3604 7.14941C63.9593 7.3571 63.612 7.64355 63.3184 8.00879C63.0319 8.37402 62.8063 8.79297 62.6416 9.26562C62.484 9.73112 62.4053 10.2253 62.4053 10.748ZM80.377 14.7441V0.5H82.375V17H80.5488L80.377 14.7441ZM72.5566 11.3174V11.0918C72.5566 10.2038 72.6641 9.39811 72.8789 8.6748C73.1009 7.94434 73.4124 7.31771 73.8135 6.79492C74.2217 6.27214 74.7051 5.87109 75.2637 5.5918C75.8294 5.30534 76.4596 5.16211 77.1543 5.16211C77.8848 5.16211 78.5221 5.29102 79.0664 5.54883C79.6178 5.79948 80.0833 6.16829 80.4629 6.65527C80.8496 7.13509 81.154 7.71517 81.376 8.39551C81.598 9.07585 81.752 9.8457 81.8379 10.7051V11.6934C81.7591 12.5456 81.6051 13.3118 81.376 13.9922C81.154 14.6725 80.8496 15.2526 80.4629 15.7324C80.0833 16.2122 79.6178 16.5811 79.0664 16.8389C78.515 17.0895 77.8704 17.2148 77.1328 17.2148C76.4525 17.2148 75.8294 17.068 75.2637 16.7744C74.7051 16.4808 74.2217 16.069 73.8135 15.5391C73.4124 15.0091 73.1009 14.3861 72.8789 13.6699C72.6641 12.9466 72.5566 12.1624 72.5566 11.3174ZM74.5547 11.0918V11.3174C74.5547 11.8975 74.612 12.4417 74.7266 12.9502C74.8483 13.4587 75.0345 13.9062 75.2852 14.293C75.5358 14.6797 75.8545 14.984 76.2412 15.2061C76.6279 15.4209 77.0898 15.5283 77.627 15.5283C78.2858 15.5283 78.8265 15.3887 79.249 15.1094C79.6787 14.8301 80.0225 14.4613 80.2803 14.0029C80.5381 13.5446 80.7386 13.0469 80.8818 12.5098V9.9209C80.7959 9.52702 80.6706 9.14746 80.5059 8.78223C80.3483 8.40983 80.1406 8.0804 79.8828 7.79395C79.6322 7.50033 79.3206 7.26758 78.9482 7.0957C78.583 6.92383 78.1497 6.83789 77.6484 6.83789C77.1042 6.83789 76.6351 6.95247 76.2412 7.18164C75.8545 7.40365 75.5358 7.71159 75.2852 8.10547C75.0345 8.49219 74.8483 8.94336 74.7266 9.45898C74.612 9.96745 74.5547 10.5117 74.5547 11.0918ZM84.9424 11.3174V11.0703C84.9424 10.2324 85.0641 9.4554 85.3076 8.73926C85.5511 8.01595 85.902 7.38932 86.3604 6.85938C86.8187 6.32227 87.3737 5.9069 88.0254 5.61328C88.6771 5.3125 89.4076 5.16211 90.2168 5.16211C91.0332 5.16211 91.7673 5.3125 92.4189 5.61328C93.0778 5.9069 93.6364 6.32227 94.0947 6.85938C94.5602 7.38932 94.9147 8.01595 95.1582 8.73926C95.4017 9.4554 95.5234 10.2324 95.5234 11.0703V11.3174C95.5234 12.1553 95.4017 12.9323 95.1582 13.6484C94.9147 14.3646 94.5602 14.9912 94.0947 15.5283C93.6364 16.0583 93.0814 16.4736 92.4297 16.7744C91.7852 17.068 91.0547 17.2148 90.2383 17.2148C89.4219 17.2148 88.6878 17.068 88.0361 16.7744C87.3844 16.4736 86.8258 16.0583 86.3604 15.5283C85.902 14.9912 85.5511 14.3646 85.3076 13.6484C85.0641 12.9323 84.9424 12.1553 84.9424 11.3174ZM86.9297 11.0703V11.3174C86.9297 11.8975 86.9977 12.4453 87.1338 12.9609C87.2699 13.4694 87.474 13.9206 87.7461 14.3145C88.0254 14.7083 88.3727 15.0199 88.7881 15.249C89.2035 15.471 89.6868 15.582 90.2383 15.582C90.7826 15.582 91.2588 15.471 91.667 15.249C92.0824 15.0199 92.4261 14.7083 92.6982 14.3145C92.9704 13.9206 93.1745 13.4694 93.3105 12.9609C93.4538 12.4453 93.5254 11.8975 93.5254 11.3174V11.0703C93.5254 10.4974 93.4538 9.95671 93.3105 9.44824C93.1745 8.93262 92.9668 8.47786 92.6875 8.08398C92.4154 7.68294 92.0716 7.36784 91.6562 7.13867C91.248 6.90951 90.7682 6.79492 90.2168 6.79492C89.6725 6.79492 89.1927 6.90951 88.7773 7.13867C88.3691 7.36784 88.0254 7.68294 87.7461 8.08398C87.474 8.47786 87.2699 8.93262 87.1338 9.44824C86.9977 9.95671 86.9297 10.4974 86.9297 11.0703ZM2.20605 17.3594H5.10645L8.86621 28.542L12.6152 17.3594H15.5156L10.0371 33H7.68457L2.20605 17.3594ZM0.530273 17.3594H3.48438L4.03223 28.9502V33H0.530273V17.3594ZM14.2373 17.3594H17.2021V33H13.6895V28.9502L14.2373 17.3594ZM25.7852 30.2285V25.2441C25.7852 24.8932 25.7314 24.5924 25.624 24.3418C25.5166 24.0911 25.3483 23.8942 25.1191 23.751C24.89 23.6077 24.5928 23.5361 24.2275 23.5361C23.9196 23.5361 23.651 23.5898 23.4219 23.6973C23.1999 23.8047 23.028 23.9587 22.9062 24.1592C22.7917 24.3597 22.7344 24.6068 22.7344 24.9004H19.3828C19.3828 24.3776 19.501 23.8906 19.7373 23.4395C19.9736 22.9883 20.3102 22.5908 20.7471 22.2471C21.1911 21.9033 21.721 21.6383 22.3369 21.4521C22.9528 21.2588 23.6439 21.1621 24.4102 21.1621C25.3197 21.1621 26.1289 21.3161 26.8379 21.624C27.554 21.9248 28.1198 22.3796 28.5352 22.9883C28.9505 23.5898 29.1582 24.349 29.1582 25.2656V30.1318C29.1582 30.8337 29.1976 31.3851 29.2764 31.7861C29.3623 32.18 29.484 32.5238 29.6416 32.8174V33H26.2578C26.1003 32.6634 25.9821 32.248 25.9033 31.7539C25.8245 31.2526 25.7852 30.7441 25.7852 30.2285ZM26.2041 25.9102L26.2256 27.7578H24.5605C24.1882 27.7578 23.8659 27.8044 23.5938 27.8975C23.3288 27.9906 23.1139 28.1195 22.9492 28.2842C22.7845 28.4417 22.6628 28.6279 22.584 28.8428C22.5124 29.0505 22.4766 29.2796 22.4766 29.5303C22.4766 29.7666 22.5339 29.9814 22.6484 30.1748C22.763 30.361 22.9206 30.5078 23.1211 30.6152C23.3216 30.7227 23.5544 30.7764 23.8193 30.7764C24.2562 30.7764 24.6286 30.6904 24.9365 30.5186C25.2516 30.3467 25.4951 30.139 25.667 29.8955C25.8389 29.6449 25.9248 29.4121 25.9248 29.1973L26.7305 30.5938C26.6016 30.8802 26.444 31.1774 26.2578 31.4854C26.0716 31.7861 25.8353 32.069 25.5488 32.334C25.2624 32.5918 24.915 32.8031 24.5068 32.9678C24.1058 33.1325 23.6224 33.2148 23.0566 33.2148C22.3262 33.2148 21.6637 33.068 21.0693 32.7744C20.4749 32.4736 19.9987 32.0618 19.6406 31.5391C19.2897 31.0163 19.1143 30.4147 19.1143 29.7344C19.1143 29.1257 19.2253 28.585 19.4473 28.1123C19.6693 27.6396 20.0023 27.2386 20.4463 26.9092C20.8975 26.5798 21.4632 26.3327 22.1436 26.168C22.8239 25.9961 23.6188 25.9102 24.5283 25.9102H26.2041ZM34.6475 23.8584V33H31.2852V21.377H34.4434L34.6475 23.8584ZM34.207 26.7803L33.3691 26.8018C33.3691 25.9281 33.4766 25.1439 33.6914 24.4492C33.9062 23.7546 34.2106 23.1637 34.6045 22.6768C35.0055 22.1826 35.4818 21.8066 36.0332 21.5488C36.5918 21.291 37.2077 21.1621 37.8809 21.1621C38.4251 21.1621 38.9229 21.2409 39.374 21.3984C39.8252 21.556 40.2119 21.8102 40.5342 22.1611C40.8636 22.5049 41.1143 22.9632 41.2861 23.5361C41.458 24.1019 41.5439 24.8001 41.5439 25.6309V33H38.1709V25.6201C38.1709 25.1331 38.1029 24.7572 37.9668 24.4922C37.8307 24.2272 37.6302 24.041 37.3652 23.9336C37.1074 23.8262 36.7923 23.7725 36.4199 23.7725C36.026 23.7725 35.6895 23.8512 35.4102 24.0088C35.1309 24.1592 34.9017 24.3704 34.7227 24.6426C34.5436 24.9147 34.4111 25.2334 34.3252 25.5986C34.2464 25.9639 34.207 26.3577 34.207 26.7803ZM49.8906 30.2285V25.2441C49.8906 24.8932 49.8369 24.5924 49.7295 24.3418C49.6221 24.0911 49.4538 23.8942 49.2246 23.751C48.9954 23.6077 48.6982 23.5361 48.333 23.5361C48.0251 23.5361 47.7565 23.5898 47.5273 23.6973C47.3053 23.8047 47.1335 23.9587 47.0117 24.1592C46.8971 24.3597 46.8398 24.6068 46.8398 24.9004H43.4883C43.4883 24.3776 43.6064 23.8906 43.8428 23.4395C44.0791 22.9883 44.4157 22.5908 44.8525 22.2471C45.2965 21.9033 45.8265 21.6383 46.4424 21.4521C47.0583 21.2588 47.7493 21.1621 48.5156 21.1621C49.4251 21.1621 50.2344 21.3161 50.9434 21.624C51.6595 21.9248 52.2253 22.3796 52.6406 22.9883C53.056 23.5898 53.2637 24.349 53.2637 25.2656V30.1318C53.2637 30.8337 53.3031 31.3851 53.3818 31.7861C53.4678 32.18 53.5895 32.5238 53.7471 32.8174V33H50.3633C50.2057 32.6634 50.0876 32.248 50.0088 31.7539C49.93 31.2526 49.8906 30.7441 49.8906 30.2285ZM50.3096 25.9102L50.3311 27.7578H48.666C48.2936 27.7578 47.9714 27.8044 47.6992 27.8975C47.4342 27.9906 47.2194 28.1195 47.0547 28.2842C46.89 28.4417 46.7682 28.6279 46.6895 28.8428C46.6178 29.0505 46.582 29.2796 46.582 29.5303C46.582 29.7666 46.6393 29.9814 46.7539 30.1748C46.8685 30.361 47.026 30.5078 47.2266 30.6152C47.4271 30.7227 47.6598 30.7764 47.9248 30.7764C48.3617 30.7764 48.734 30.6904 49.042 30.5186C49.3571 30.3467 49.6006 30.139 49.7725 29.8955C49.9443 29.6449 50.0303 29.4121 50.0303 29.1973L50.8359 30.5938C50.707 30.8802 50.5495 31.1774 50.3633 31.4854C50.1771 31.7861 49.9408 32.069 49.6543 32.334C49.3678 32.5918 49.0205 32.8031 48.6123 32.9678C48.2113 33.1325 47.7279 33.2148 47.1621 33.2148C46.4316 33.2148 45.7692 33.068 45.1748 32.7744C44.5804 32.4736 44.1042 32.0618 43.7461 31.5391C43.3952 31.0163 43.2197 30.4147 43.2197 29.7344C43.2197 29.1257 43.3307 28.585 43.5527 28.1123C43.7747 27.6396 44.1077 27.2386 44.5518 26.9092C45.0029 26.5798 45.5687 26.3327 46.249 26.168C46.9294 25.9961 47.7243 25.9102 48.6338 25.9102H50.3096ZM62.792 21.377H65.8428V32.5811C65.8428 33.6481 65.5993 34.554 65.1123 35.2988C64.6325 36.0436 63.9629 36.6094 63.1035 36.9961C62.2441 37.3828 61.238 37.5762 60.085 37.5762C59.5837 37.5762 59.0609 37.5081 58.5166 37.3721C57.9723 37.2432 57.4603 37.0462 56.9805 36.7812C56.5007 36.5234 56.0996 36.194 55.7773 35.793L57.2061 33.8164C57.5355 34.1888 57.9294 34.4896 58.3877 34.7188C58.846 34.9551 59.3688 35.0732 59.9561 35.0732C60.4932 35.0732 60.9479 34.9766 61.3203 34.7832C61.6927 34.5898 61.9756 34.307 62.1689 33.9346C62.3695 33.5622 62.4697 33.111 62.4697 32.5811V24.0947L62.792 21.377ZM55.0254 27.3281V27.1025C55.0254 26.2217 55.1328 25.4196 55.3477 24.6963C55.5625 23.9658 55.874 23.3392 56.2822 22.8164C56.6976 22.2865 57.1953 21.8783 57.7754 21.5918C58.3626 21.3053 59.0215 21.1621 59.752 21.1621C60.5397 21.1621 61.1914 21.3125 61.707 21.6133C62.2227 21.9069 62.6416 22.3223 62.9639 22.8594C63.2861 23.3893 63.5404 24.016 63.7266 24.7393C63.9128 25.4554 64.0632 26.2324 64.1777 27.0703V27.457C64.0632 28.2591 63.8984 29.0075 63.6836 29.7021C63.4688 30.3968 63.1895 31.0091 62.8457 31.5391C62.502 32.0618 62.0723 32.4736 61.5566 32.7744C61.0482 33.068 60.4395 33.2148 59.7305 33.2148C59.0072 33.2148 58.3555 33.068 57.7754 32.7744C57.1953 32.4808 56.6976 32.069 56.2822 31.5391C55.874 31.0091 55.5625 30.3861 55.3477 29.6699C55.1328 28.9538 55.0254 28.1732 55.0254 27.3281ZM58.377 27.1025V27.3281C58.377 27.7865 58.4199 28.2126 58.5059 28.6064C58.599 29.0003 58.735 29.3477 58.9141 29.6484C59.1003 29.9492 59.3294 30.1855 59.6016 30.3574C59.8809 30.5221 60.2067 30.6045 60.5791 30.6045C61.1234 30.6045 61.5638 30.4899 61.9004 30.2607C62.2441 30.0244 62.4948 29.6986 62.6523 29.2832C62.8171 28.8678 62.903 28.3844 62.9102 27.833V26.7051C62.9102 26.2467 62.8636 25.835 62.7705 25.4697C62.6774 25.1045 62.5378 24.7965 62.3516 24.5459C62.1725 24.2952 61.9362 24.1055 61.6426 23.9766C61.3561 23.8405 61.0088 23.7725 60.6006 23.7725C60.2354 23.7725 59.9131 23.8584 59.6338 24.0303C59.3545 24.195 59.1217 24.4277 58.9355 24.7285C58.7493 25.0293 58.6097 25.3838 58.5166 25.792C58.4235 26.193 58.377 26.6299 58.377 27.1025ZM73.5557 33.2148C72.6318 33.2148 71.8047 33.068 71.0742 32.7744C70.3438 32.4808 69.7243 32.0762 69.2158 31.5605C68.7145 31.0378 68.3314 30.4362 68.0664 29.7559C67.8014 29.0755 67.6689 28.3486 67.6689 27.5752V27.167C67.6689 26.3005 67.7907 25.502 68.0342 24.7715C68.2777 24.041 68.6322 23.4072 69.0977 22.8701C69.5703 22.3258 70.1504 21.9069 70.8379 21.6133C71.5254 21.3125 72.3096 21.1621 73.1904 21.1621C74.014 21.1621 74.748 21.2982 75.3926 21.5703C76.0371 21.8353 76.5814 22.2184 77.0254 22.7197C77.4694 23.2139 77.806 23.8118 78.0352 24.5137C78.2715 25.2083 78.3896 25.9889 78.3896 26.8555V28.2305H69.0225V26.0713H75.1025V25.8135C75.1025 25.4053 75.0273 25.0472 74.877 24.7393C74.7337 24.4313 74.5189 24.195 74.2324 24.0303C73.9531 23.8584 73.5986 23.7725 73.1689 23.7725C72.7607 23.7725 72.4206 23.8584 72.1484 24.0303C71.8763 24.2021 71.6579 24.4456 71.4932 24.7607C71.3356 25.0687 71.221 25.4303 71.1494 25.8457C71.0778 26.2539 71.042 26.6943 71.042 27.167V27.5752C71.042 28.0264 71.1029 28.4382 71.2246 28.8105C71.3464 29.1829 71.5254 29.5016 71.7617 29.7666C71.998 30.0316 72.2845 30.2393 72.6211 30.3896C72.9577 30.54 73.3408 30.6152 73.7705 30.6152C74.3005 30.6152 74.8053 30.515 75.2852 30.3145C75.765 30.1068 76.1803 29.7845 76.5312 29.3477L78.0996 31.1416C77.8633 31.4854 77.5303 31.8184 77.1006 32.1406C76.6781 32.4557 76.1696 32.7135 75.5752 32.9141C74.9808 33.1146 74.3076 33.2148 73.5557 33.2148ZM83.3848 23.8154V33H80.0332V21.377H83.1807L83.3848 23.8154ZM82.9551 26.7803L82.1064 26.8018C82.1064 25.9854 82.2031 25.237 82.3965 24.5566C82.597 23.8691 82.887 23.2712 83.2666 22.7627C83.6462 22.2542 84.1152 21.8604 84.6738 21.5811C85.2396 21.3018 85.8913 21.1621 86.6289 21.1621C87.1445 21.1621 87.6136 21.2409 88.0361 21.3984C88.4587 21.5488 88.8203 21.7887 89.1211 22.1182C89.429 22.4404 89.6654 22.863 89.8301 23.3857C89.9948 23.9014 90.0771 24.5208 90.0771 25.2441V33H86.7256V25.6523C86.7256 25.1367 86.6611 24.7464 86.5322 24.4814C86.4105 24.2093 86.2314 24.0231 85.9951 23.9229C85.7588 23.8226 85.4759 23.7725 85.1465 23.7725C84.7884 23.7725 84.4697 23.8512 84.1904 24.0088C83.9183 24.1592 83.6891 24.3704 83.5029 24.6426C83.3167 24.9147 83.1771 25.2334 83.084 25.5986C82.998 25.9639 82.9551 26.3577 82.9551 26.7803ZM89.7334 26.6084L88.6699 26.6943C88.6699 25.9066 88.763 25.1761 88.9492 24.5029C89.1354 23.8298 89.4147 23.2461 89.7871 22.752C90.1595 22.2507 90.6214 21.8604 91.1729 21.5811C91.7314 21.3018 92.3796 21.1621 93.1172 21.1621C93.6615 21.1621 94.1556 21.2409 94.5996 21.3984C95.0508 21.556 95.4375 21.8102 95.7598 22.1611C96.0892 22.512 96.3434 22.974 96.5225 23.5469C96.7015 24.1126 96.791 24.8073 96.791 25.6309V33H93.418V25.6309C93.418 25.1224 93.3535 24.7357 93.2246 24.4707C93.1029 24.2057 92.9238 24.0231 92.6875 23.9229C92.4583 23.8226 92.1826 23.7725 91.8604 23.7725C91.5023 23.7725 91.1908 23.8477 90.9258 23.998C90.6608 24.1413 90.4388 24.3418 90.2598 24.5996C90.0807 24.8503 89.9482 25.1475 89.8623 25.4912C89.7764 25.835 89.7334 26.2074 89.7334 26.6084ZM104.515 33.2148C103.591 33.2148 102.764 33.068 102.033 32.7744C101.303 32.4808 100.683 32.0762 100.175 31.5605C99.6735 31.0378 99.2904 30.4362 99.0254 29.7559C98.7604 29.0755 98.6279 28.3486 98.6279 27.5752V27.167C98.6279 26.3005 98.7497 25.502 98.9932 24.7715C99.2367 24.041 99.5911 23.4072 100.057 22.8701C100.529 22.3258 101.109 21.9069 101.797 21.6133C102.484 21.3125 103.269 21.1621 104.149 21.1621C104.973 21.1621 105.707 21.2982 106.352 21.5703C106.996 21.8353 107.54 22.2184 107.984 22.7197C108.428 23.2139 108.765 23.8118 108.994 24.5137C109.23 25.2083 109.349 25.9889 109.349 26.8555V28.2305H99.9814V26.0713H106.062V25.8135C106.062 25.4053 105.986 25.0472 105.836 24.7393C105.693 24.4313 105.478 24.195 105.191 24.0303C104.912 23.8584 104.558 23.7725 104.128 23.7725C103.72 23.7725 103.38 23.8584 103.107 24.0303C102.835 24.2021 102.617 24.4456 102.452 24.7607C102.295 25.0687 102.18 25.4303 102.108 25.8457C102.037 26.2539 102.001 26.6943 102.001 27.167V27.5752C102.001 28.0264 102.062 28.4382 102.184 28.8105C102.305 29.1829 102.484 29.5016 102.721 29.7666C102.957 30.0316 103.243 30.2393 103.58 30.3896C103.917 30.54 104.3 30.6152 104.729 30.6152C105.259 30.6152 105.764 30.515 106.244 30.3145C106.724 30.1068 107.139 29.7845 107.49 29.3477L109.059 31.1416C108.822 31.4854 108.489 31.8184 108.06 32.1406C107.637 32.4557 107.129 32.7135 106.534 32.9141C105.94 33.1146 105.267 33.2148 104.515 33.2148ZM114.269 23.8584V33H110.906V21.377H114.064L114.269 23.8584ZM113.828 26.7803L112.99 26.8018C112.99 25.9281 113.098 25.1439 113.312 24.4492C113.527 23.7546 113.832 23.1637 114.226 22.6768C114.627 22.1826 115.103 21.8066 115.654 21.5488C116.213 21.291 116.829 21.1621 117.502 21.1621C118.046 21.1621 118.544 21.2409 118.995 21.3984C119.446 21.556 119.833 21.8102 120.155 22.1611C120.485 22.5049 120.735 22.9632 120.907 23.5361C121.079 24.1019 121.165 24.8001 121.165 25.6309V33H117.792V25.6201C117.792 25.1331 117.724 24.7572 117.588 24.4922C117.452 24.2272 117.251 24.041 116.986 23.9336C116.729 23.8262 116.413 23.7725 116.041 23.7725C115.647 23.7725 115.311 23.8512 115.031 24.0088C114.752 24.1592 114.523 24.3704 114.344 24.6426C114.165 24.9147 114.032 25.2334 113.946 25.5986C113.868 25.9639 113.828 26.3577 113.828 26.7803ZM129.265 21.377V23.7295H122.368V21.377H129.265ZM123.947 18.498H127.31V29.3584C127.31 29.6807 127.349 29.9277 127.428 30.0996C127.507 30.2715 127.635 30.3932 127.814 30.4648C127.993 30.5293 128.223 30.5615 128.502 30.5615C128.702 30.5615 128.874 30.5544 129.018 30.54C129.161 30.5257 129.293 30.5078 129.415 30.4863V32.9141C129.129 33.0072 128.824 33.0788 128.502 33.1289C128.18 33.1862 127.829 33.2148 127.449 33.2148C126.726 33.2148 126.099 33.0967 125.569 32.8604C125.047 32.624 124.646 32.2516 124.366 31.7432C124.087 31.2275 123.947 30.5579 123.947 29.7344V18.498Z" fill="white"/>
</svg>
