<svg width="194" height="22" viewBox="0 0 194 22" fill="none" xmlns="http://www.w3.org/2000/svg">
<path d="M10.2578 12.0264H12.3203C12.2129 13.0146 11.93 13.8991 11.4717 14.6797C11.0133 15.4603 10.3652 16.0798 9.52734 16.5381C8.68945 16.9893 7.64388 17.2148 6.39062 17.2148C5.47396 17.2148 4.63965 17.043 3.8877 16.6992C3.1429 16.3555 2.50195 15.8685 1.96484 15.2383C1.42773 14.6009 1.01237 13.8382 0.71875 12.9502C0.432292 12.055 0.289062 11.0596 0.289062 9.96387V8.40625C0.289062 7.31055 0.432292 6.31868 0.71875 5.43066C1.01237 4.53548 1.43132 3.76921 1.97559 3.13184C2.52702 2.49447 3.18945 2.00391 3.96289 1.66016C4.73633 1.31641 5.60645 1.14453 6.57324 1.14453C7.75488 1.14453 8.75391 1.36654 9.57031 1.81055C10.3867 2.25456 11.0205 2.87044 11.4717 3.6582C11.93 4.4388 12.2129 5.34473 12.3203 6.37598H10.2578C10.1576 5.64551 9.97135 5.01888 9.69922 4.49609C9.42708 3.96615 9.04036 3.55794 8.53906 3.27148C8.03776 2.98503 7.38249 2.8418 6.57324 2.8418C5.87858 2.8418 5.26628 2.97428 4.73633 3.23926C4.21354 3.50423 3.77311 3.88021 3.41504 4.36719C3.06413 4.85417 2.79915 5.43783 2.62012 6.11816C2.44108 6.7985 2.35156 7.55404 2.35156 8.38477V9.96387C2.35156 10.7301 2.43034 11.4499 2.58789 12.123C2.7526 12.7962 2.99967 13.387 3.3291 13.8955C3.65853 14.404 4.07747 14.805 4.58594 15.0986C5.0944 15.3851 5.69596 15.5283 6.39062 15.5283C7.27148 15.5283 7.97331 15.3887 8.49609 15.1094C9.01888 14.8301 9.41276 14.429 9.67773 13.9062C9.94987 13.3835 10.1432 12.7568 10.2578 12.0264ZM14.3184 11.3174V11.0703C14.3184 10.2324 14.4401 9.4554 14.6836 8.73926C14.9271 8.01595 15.278 7.38932 15.7363 6.85938C16.1947 6.32227 16.7497 5.9069 17.4014 5.61328C18.0531 5.3125 18.7835 5.16211 19.5928 5.16211C20.4092 5.16211 21.1432 5.3125 21.7949 5.61328C22.4538 5.9069 23.0124 6.32227 23.4707 6.85938C23.9362 7.38932 24.2907 8.01595 24.5342 8.73926C24.7777 9.4554 24.8994 10.2324 24.8994 11.0703V11.3174C24.8994 12.1553 24.7777 12.9323 24.5342 13.6484C24.2907 14.3646 23.9362 14.9912 23.4707 15.5283C23.0124 16.0583 22.4574 16.4736 21.8057 16.7744C21.1611 17.068 20.4307 17.2148 19.6143 17.2148C18.7979 17.2148 18.0638 17.068 17.4121 16.7744C16.7604 16.4736 16.2018 16.0583 15.7363 15.5283C15.278 14.9912 14.9271 14.3646 14.6836 13.6484C14.4401 12.9323 14.3184 12.1553 14.3184 11.3174ZM16.3057 11.0703V11.3174C16.3057 11.8975 16.3737 12.4453 16.5098 12.9609C16.6458 13.4694 16.8499 13.9206 17.1221 14.3145C17.4014 14.7083 17.7487 15.0199 18.1641 15.249C18.5794 15.471 19.0628 15.582 19.6143 15.582C20.1585 15.582 20.6348 15.471 21.043 15.249C21.4583 15.0199 21.8021 14.7083 22.0742 14.3145C22.3464 13.9206 22.5505 13.4694 22.6865 12.9609C22.8298 12.4453 22.9014 11.8975 22.9014 11.3174V11.0703C22.9014 10.4974 22.8298 9.95671 22.6865 9.44824C22.5505 8.93262 22.3428 8.47786 22.0635 8.08398C21.7913 7.68294 21.4476 7.36784 21.0322 7.13867C20.624 6.90951 20.1442 6.79492 19.5928 6.79492C19.0485 6.79492 18.5687 6.90951 18.1533 7.13867C17.7451 7.36784 17.4014 7.68294 17.1221 8.08398C16.8499 8.47786 16.6458 8.93262 16.5098 9.44824C16.3737 9.95671 16.3057 10.4974 16.3057 11.0703ZM29.3789 7.8584V17H27.3916V5.37695H29.2715L29.3789 7.8584ZM28.9062 10.748L28.0791 10.7158C28.0863 9.9209 28.2044 9.18685 28.4336 8.51367C28.6628 7.83333 28.985 7.24251 29.4004 6.74121C29.8158 6.23991 30.3099 5.85319 30.8828 5.58105C31.4629 5.30176 32.1038 5.16211 32.8057 5.16211C33.3786 5.16211 33.8942 5.24089 34.3525 5.39844C34.8109 5.54883 35.2012 5.79232 35.5234 6.12891C35.8529 6.46549 36.1035 6.90234 36.2754 7.43945C36.4473 7.9694 36.5332 8.61751 36.5332 9.38379V17H34.5352V9.3623C34.5352 8.75358 34.4456 8.2666 34.2666 7.90137C34.0876 7.52897 33.8262 7.26042 33.4824 7.0957C33.1387 6.92383 32.7161 6.83789 32.2148 6.83789C31.7207 6.83789 31.2695 6.94173 30.8613 7.14941C30.4603 7.3571 30.113 7.64355 29.8193 8.00879C29.5329 8.37402 29.3073 8.79297 29.1426 9.26562C28.985 9.73112 28.9062 10.2253 28.9062 10.748ZM46.8779 14.7441V0.5H48.876V17H47.0498L46.8779 14.7441ZM39.0576 11.3174V11.0918C39.0576 10.2038 39.165 9.39811 39.3799 8.6748C39.6019 7.94434 39.9134 7.31771 40.3145 6.79492C40.7227 6.27214 41.2061 5.87109 41.7646 5.5918C42.3304 5.30534 42.9606 5.16211 43.6553 5.16211C44.3857 5.16211 45.0231 5.29102 45.5674 5.54883C46.1188 5.79948 46.5843 6.16829 46.9639 6.65527C47.3506 7.13509 47.6549 7.71517 47.877 8.39551C48.099 9.07585 48.2529 9.8457 48.3389 10.7051V11.6934C48.2601 12.5456 48.1061 13.3118 47.877 13.9922C47.6549 14.6725 47.3506 15.2526 46.9639 15.7324C46.5843 16.2122 46.1188 16.5811 45.5674 16.8389C45.016 17.0895 44.3714 17.2148 43.6338 17.2148C42.9535 17.2148 42.3304 17.068 41.7646 16.7744C41.2061 16.4808 40.7227 16.069 40.3145 15.5391C39.9134 15.0091 39.6019 14.3861 39.3799 13.6699C39.165 12.9466 39.0576 12.1624 39.0576 11.3174ZM41.0557 11.0918V11.3174C41.0557 11.8975 41.113 12.4417 41.2275 12.9502C41.3493 13.4587 41.5355 13.9062 41.7861 14.293C42.0368 14.6797 42.3555 14.984 42.7422 15.2061C43.1289 15.4209 43.5908 15.5283 44.1279 15.5283C44.7868 15.5283 45.3275 15.3887 45.75 15.1094C46.1797 14.8301 46.5234 14.4613 46.7812 14.0029C47.0391 13.5446 47.2396 13.0469 47.3828 12.5098V9.9209C47.2969 9.52702 47.1715 9.14746 47.0068 8.78223C46.8493 8.40983 46.6416 8.0804 46.3838 7.79395C46.1331 7.50033 45.8216 7.26758 45.4492 7.0957C45.084 6.92383 44.6507 6.83789 44.1494 6.83789C43.6051 6.83789 43.1361 6.95247 42.7422 7.18164C42.3555 7.40365 42.0368 7.71159 41.7861 8.10547C41.5355 8.49219 41.3493 8.94336 41.2275 9.45898C41.113 9.96745 41.0557 10.5117 41.0557 11.0918ZM51.4434 11.3174V11.0703C51.4434 10.2324 51.5651 9.4554 51.8086 8.73926C52.0521 8.01595 52.403 7.38932 52.8613 6.85938C53.3197 6.32227 53.8747 5.9069 54.5264 5.61328C55.1781 5.3125 55.9085 5.16211 56.7178 5.16211C57.5342 5.16211 58.2682 5.3125 58.9199 5.61328C59.5788 5.9069 60.1374 6.32227 60.5957 6.85938C61.0612 7.38932 61.4157 8.01595 61.6592 8.73926C61.9027 9.4554 62.0244 10.2324 62.0244 11.0703V11.3174C62.0244 12.1553 61.9027 12.9323 61.6592 13.6484C61.4157 14.3646 61.0612 14.9912 60.5957 15.5283C60.1374 16.0583 59.5824 16.4736 58.9307 16.7744C58.2861 17.068 57.5557 17.2148 56.7393 17.2148C55.9229 17.2148 55.1888 17.068 54.5371 16.7744C53.8854 16.4736 53.3268 16.0583 52.8613 15.5283C52.403 14.9912 52.0521 14.3646 51.8086 13.6484C51.5651 12.9323 51.4434 12.1553 51.4434 11.3174ZM53.4307 11.0703V11.3174C53.4307 11.8975 53.4987 12.4453 53.6348 12.9609C53.7708 13.4694 53.9749 13.9206 54.2471 14.3145C54.5264 14.7083 54.8737 15.0199 55.2891 15.249C55.7044 15.471 56.1878 15.582 56.7393 15.582C57.2835 15.582 57.7598 15.471 58.168 15.249C58.5833 15.0199 58.9271 14.7083 59.1992 14.3145C59.4714 13.9206 59.6755 13.4694 59.8115 12.9609C59.9548 12.4453 60.0264 11.8975 60.0264 11.3174V11.0703C60.0264 10.4974 59.9548 9.95671 59.8115 9.44824C59.6755 8.93262 59.4678 8.47786 59.1885 8.08398C58.9163 7.68294 58.5726 7.36784 58.1572 7.13867C57.749 6.90951 57.2692 6.79492 56.7178 6.79492C56.1735 6.79492 55.6937 6.90951 55.2783 7.13867C54.8701 7.36784 54.5264 7.68294 54.2471 8.08398C53.9749 8.47786 53.7708 8.93262 53.6348 9.44824C53.4987 9.95671 53.4307 10.4974 53.4307 11.0703ZM65.9668 1.35938H68.8672L72.627 12.542L76.376 1.35938H79.2764L73.7979 17H71.4453L65.9668 1.35938ZM64.291 1.35938H67.2451L67.793 12.9502V17H64.291V1.35938ZM77.998 1.35938H80.9629V17H77.4502V12.9502L77.998 1.35938ZM89.5459 14.2285V9.24414C89.5459 8.89323 89.4922 8.59245 89.3848 8.3418C89.2773 8.09115 89.109 7.89421 88.8799 7.75098C88.6507 7.60775 88.3535 7.53613 87.9883 7.53613C87.6803 7.53613 87.4118 7.58984 87.1826 7.69727C86.9606 7.80469 86.7887 7.95866 86.667 8.15918C86.5524 8.3597 86.4951 8.60677 86.4951 8.90039H83.1436C83.1436 8.3776 83.2617 7.89062 83.498 7.43945C83.7344 6.98828 84.071 6.59082 84.5078 6.24707C84.9518 5.90332 85.4818 5.63835 86.0977 5.45215C86.7135 5.25879 87.4046 5.16211 88.1709 5.16211C89.0804 5.16211 89.8896 5.31608 90.5986 5.62402C91.3148 5.9248 91.8805 6.37956 92.2959 6.98828C92.7113 7.58984 92.9189 8.34896 92.9189 9.26562V14.1318C92.9189 14.8337 92.9583 15.3851 93.0371 15.7861C93.123 16.18 93.2448 16.5238 93.4023 16.8174V17H90.0186C89.861 16.6634 89.7428 16.248 89.6641 15.7539C89.5853 15.2526 89.5459 14.7441 89.5459 14.2285ZM89.9648 9.91016L89.9863 11.7578H88.3213C87.9489 11.7578 87.6266 11.8044 87.3545 11.8975C87.0895 11.9906 86.8747 12.1195 86.71 12.2842C86.5452 12.4417 86.4235 12.6279 86.3447 12.8428C86.2731 13.0505 86.2373 13.2796 86.2373 13.5303C86.2373 13.7666 86.2946 13.9814 86.4092 14.1748C86.5238 14.361 86.6813 14.5078 86.8818 14.6152C87.0824 14.7227 87.3151 14.7764 87.5801 14.7764C88.0169 14.7764 88.3893 14.6904 88.6973 14.5186C89.0124 14.3467 89.2559 14.139 89.4277 13.8955C89.5996 13.6449 89.6855 13.4121 89.6855 13.1973L90.4912 14.5938C90.3623 14.8802 90.2048 15.1774 90.0186 15.4854C89.8324 15.7861 89.596 16.069 89.3096 16.334C89.0231 16.5918 88.6758 16.8031 88.2676 16.9678C87.8665 17.1325 87.3831 17.2148 86.8174 17.2148C86.0869 17.2148 85.4245 17.068 84.8301 16.7744C84.2357 16.4736 83.7594 16.0618 83.4014 15.5391C83.0505 15.0163 82.875 14.4147 82.875 13.7344C82.875 13.1257 82.986 12.585 83.208 12.1123C83.43 11.6396 83.763 11.2386 84.207 10.9092C84.6582 10.5798 85.224 10.3327 85.9043 10.168C86.5846 9.99609 87.3796 9.91016 88.2891 9.91016H89.9648ZM98.4082 7.8584V17H95.0459V5.37695H98.2041L98.4082 7.8584ZM97.9678 10.7803L97.1299 10.8018C97.1299 9.92806 97.2373 9.14388 97.4521 8.44922C97.667 7.75456 97.9714 7.16374 98.3652 6.67676C98.7663 6.18262 99.2425 5.80664 99.7939 5.54883C100.353 5.29102 100.968 5.16211 101.642 5.16211C102.186 5.16211 102.684 5.24089 103.135 5.39844C103.586 5.55599 103.973 5.81022 104.295 6.16113C104.624 6.50488 104.875 6.96322 105.047 7.53613C105.219 8.10189 105.305 8.80013 105.305 9.63086V17H101.932V9.62012C101.932 9.13314 101.864 8.75716 101.728 8.49219C101.591 8.22721 101.391 8.04102 101.126 7.93359C100.868 7.82617 100.553 7.77246 100.181 7.77246C99.7868 7.77246 99.4502 7.85124 99.1709 8.00879C98.8916 8.15918 98.6624 8.37044 98.4834 8.64258C98.3044 8.91471 98.1719 9.2334 98.0859 9.59863C98.0072 9.96387 97.9678 10.3577 97.9678 10.7803ZM113.651 14.2285V9.24414C113.651 8.89323 113.598 8.59245 113.49 8.3418C113.383 8.09115 113.215 7.89421 112.985 7.75098C112.756 7.60775 112.459 7.53613 112.094 7.53613C111.786 7.53613 111.517 7.58984 111.288 7.69727C111.066 7.80469 110.894 7.95866 110.772 8.15918C110.658 8.3597 110.601 8.60677 110.601 8.90039H107.249C107.249 8.3776 107.367 7.89062 107.604 7.43945C107.84 6.98828 108.176 6.59082 108.613 6.24707C109.057 5.90332 109.587 5.63835 110.203 5.45215C110.819 5.25879 111.51 5.16211 112.276 5.16211C113.186 5.16211 113.995 5.31608 114.704 5.62402C115.42 5.9248 115.986 6.37956 116.401 6.98828C116.817 7.58984 117.024 8.34896 117.024 9.26562V14.1318C117.024 14.8337 117.064 15.3851 117.143 15.7861C117.229 16.18 117.35 16.5238 117.508 16.8174V17H114.124C113.966 16.6634 113.848 16.248 113.77 15.7539C113.691 15.2526 113.651 14.7441 113.651 14.2285ZM114.07 9.91016L114.092 11.7578H112.427C112.054 11.7578 111.732 11.8044 111.46 11.8975C111.195 11.9906 110.98 12.1195 110.815 12.2842C110.651 12.4417 110.529 12.6279 110.45 12.8428C110.379 13.0505 110.343 13.2796 110.343 13.5303C110.343 13.7666 110.4 13.9814 110.515 14.1748C110.629 14.361 110.787 14.5078 110.987 14.6152C111.188 14.7227 111.421 14.7764 111.686 14.7764C112.122 14.7764 112.495 14.6904 112.803 14.5186C113.118 14.3467 113.361 14.139 113.533 13.8955C113.705 13.6449 113.791 13.4121 113.791 13.1973L114.597 14.5938C114.468 14.8802 114.31 15.1774 114.124 15.4854C113.938 15.7861 113.701 16.069 113.415 16.334C113.129 16.5918 112.781 16.8031 112.373 16.9678C111.972 17.1325 111.489 17.2148 110.923 17.2148C110.192 17.2148 109.53 17.068 108.936 16.7744C108.341 16.4736 107.865 16.0618 107.507 15.5391C107.156 15.0163 106.98 14.4147 106.98 13.7344C106.98 13.1257 107.091 12.585 107.313 12.1123C107.535 11.6396 107.868 11.2386 108.312 10.9092C108.764 10.5798 109.329 10.3327 110.01 10.168C110.69 9.99609 111.485 9.91016 112.395 9.91016H114.07ZM126.553 5.37695H129.604V16.5811C129.604 17.6481 129.36 18.554 128.873 19.2988C128.393 20.0436 127.724 20.6094 126.864 20.9961C126.005 21.3828 124.999 21.5762 123.846 21.5762C123.344 21.5762 122.822 21.5081 122.277 21.3721C121.733 21.2432 121.221 21.0462 120.741 20.7812C120.261 20.5234 119.86 20.194 119.538 19.793L120.967 17.8164C121.296 18.1888 121.69 18.4896 122.148 18.7188C122.607 18.9551 123.13 19.0732 123.717 19.0732C124.254 19.0732 124.709 18.9766 125.081 18.7832C125.453 18.5898 125.736 18.307 125.93 17.9346C126.13 17.5622 126.23 17.111 126.23 16.5811V8.09473L126.553 5.37695ZM118.786 11.3281V11.1025C118.786 10.2217 118.894 9.4196 119.108 8.69629C119.323 7.96582 119.635 7.33919 120.043 6.81641C120.458 6.28646 120.956 5.87826 121.536 5.5918C122.123 5.30534 122.782 5.16211 123.513 5.16211C124.3 5.16211 124.952 5.3125 125.468 5.61328C125.983 5.9069 126.402 6.32227 126.725 6.85938C127.047 7.38932 127.301 8.01595 127.487 8.73926C127.674 9.4554 127.824 10.2324 127.938 11.0703V11.457C127.824 12.2591 127.659 13.0075 127.444 13.7021C127.229 14.3968 126.95 15.0091 126.606 15.5391C126.263 16.0618 125.833 16.4736 125.317 16.7744C124.809 17.068 124.2 17.2148 123.491 17.2148C122.768 17.2148 122.116 17.068 121.536 16.7744C120.956 16.4808 120.458 16.069 120.043 15.5391C119.635 15.0091 119.323 14.3861 119.108 13.6699C118.894 12.9538 118.786 12.1732 118.786 11.3281ZM122.138 11.1025V11.3281C122.138 11.7865 122.181 12.2126 122.267 12.6064C122.36 13.0003 122.496 13.3477 122.675 13.6484C122.861 13.9492 123.09 14.1855 123.362 14.3574C123.642 14.5221 123.967 14.6045 124.34 14.6045C124.884 14.6045 125.325 14.4899 125.661 14.2607C126.005 14.0244 126.256 13.6986 126.413 13.2832C126.578 12.8678 126.664 12.3844 126.671 11.833V10.7051C126.671 10.2467 126.624 9.83496 126.531 9.46973C126.438 9.10449 126.299 8.79655 126.112 8.5459C125.933 8.29525 125.697 8.10547 125.403 7.97656C125.117 7.84049 124.77 7.77246 124.361 7.77246C123.996 7.77246 123.674 7.8584 123.395 8.03027C123.115 8.19499 122.882 8.42773 122.696 8.72852C122.51 9.0293 122.37 9.38379 122.277 9.79199C122.184 10.193 122.138 10.6299 122.138 11.1025ZM137.316 17.2148C136.393 17.2148 135.565 17.068 134.835 16.7744C134.104 16.4808 133.485 16.0762 132.977 15.5605C132.475 15.0378 132.092 14.4362 131.827 13.7559C131.562 13.0755 131.43 12.3486 131.43 11.5752V11.167C131.43 10.3005 131.551 9.50195 131.795 8.77148C132.038 8.04102 132.393 7.40723 132.858 6.87012C133.331 6.32585 133.911 5.9069 134.599 5.61328C135.286 5.3125 136.07 5.16211 136.951 5.16211C137.775 5.16211 138.509 5.29818 139.153 5.57031C139.798 5.83529 140.342 6.21842 140.786 6.71973C141.23 7.21387 141.567 7.81185 141.796 8.51367C142.032 9.20833 142.15 9.98893 142.15 10.8555V12.2305H132.783V10.0713H138.863V9.81348C138.863 9.40527 138.788 9.0472 138.638 8.73926C138.494 8.43132 138.28 8.19499 137.993 8.03027C137.714 7.8584 137.359 7.77246 136.93 7.77246C136.521 7.77246 136.181 7.8584 135.909 8.03027C135.637 8.20215 135.419 8.44564 135.254 8.76074C135.096 9.06868 134.982 9.43034 134.91 9.8457C134.839 10.2539 134.803 10.6943 134.803 11.167V11.5752C134.803 12.0264 134.864 12.4382 134.985 12.8105C135.107 13.1829 135.286 13.5016 135.522 13.7666C135.759 14.0316 136.045 14.2393 136.382 14.3896C136.718 14.54 137.102 14.6152 137.531 14.6152C138.061 14.6152 138.566 14.515 139.046 14.3145C139.526 14.1068 139.941 13.7845 140.292 13.3477L141.86 15.1416C141.624 15.4854 141.291 15.8184 140.861 16.1406C140.439 16.4557 139.93 16.7135 139.336 16.9141C138.742 17.1146 138.068 17.2148 137.316 17.2148ZM147.146 7.81543V17H143.794V5.37695H146.941L147.146 7.81543ZM146.716 10.7803L145.867 10.8018C145.867 9.98535 145.964 9.23698 146.157 8.55664C146.358 7.86914 146.648 7.27116 147.027 6.7627C147.407 6.25423 147.876 5.86035 148.435 5.58105C149 5.30176 149.652 5.16211 150.39 5.16211C150.905 5.16211 151.374 5.24089 151.797 5.39844C152.219 5.54883 152.581 5.78874 152.882 6.11816C153.19 6.44043 153.426 6.86296 153.591 7.38574C153.756 7.90137 153.838 8.52083 153.838 9.24414V17H150.486V9.65234C150.486 9.13672 150.422 8.74642 150.293 8.48145C150.171 8.20931 149.992 8.02311 149.756 7.92285C149.52 7.82259 149.237 7.77246 148.907 7.77246C148.549 7.77246 148.23 7.85124 147.951 8.00879C147.679 8.15918 147.45 8.37044 147.264 8.64258C147.077 8.91471 146.938 9.2334 146.845 9.59863C146.759 9.96387 146.716 10.3577 146.716 10.7803ZM153.494 10.6084L152.431 10.6943C152.431 9.90658 152.524 9.17611 152.71 8.50293C152.896 7.82975 153.175 7.24609 153.548 6.75195C153.92 6.25065 154.382 5.86035 154.934 5.58105C155.492 5.30176 156.14 5.16211 156.878 5.16211C157.422 5.16211 157.916 5.24089 158.36 5.39844C158.812 5.55599 159.198 5.81022 159.521 6.16113C159.85 6.51204 160.104 6.97396 160.283 7.54688C160.462 8.11263 160.552 8.80729 160.552 9.63086V17H157.179V9.63086C157.179 9.1224 157.114 8.73568 156.985 8.4707C156.864 8.20573 156.685 8.02311 156.448 7.92285C156.219 7.82259 155.943 7.77246 155.621 7.77246C155.263 7.77246 154.951 7.84766 154.687 7.99805C154.422 8.14128 154.2 8.3418 154.021 8.59961C153.841 8.85026 153.709 9.14746 153.623 9.49121C153.537 9.83496 153.494 10.2074 153.494 10.6084ZM168.275 17.2148C167.352 17.2148 166.524 17.068 165.794 16.7744C165.063 16.4808 164.444 16.0762 163.936 15.5605C163.434 15.0378 163.051 14.4362 162.786 13.7559C162.521 13.0755 162.389 12.3486 162.389 11.5752V11.167C162.389 10.3005 162.51 9.50195 162.754 8.77148C162.997 8.04102 163.352 7.40723 163.817 6.87012C164.29 6.32585 164.87 5.9069 165.558 5.61328C166.245 5.3125 167.029 5.16211 167.91 5.16211C168.734 5.16211 169.468 5.29818 170.112 5.57031C170.757 5.83529 171.301 6.21842 171.745 6.71973C172.189 7.21387 172.526 7.81185 172.755 8.51367C172.991 9.20833 173.109 9.98893 173.109 10.8555V12.2305H163.742V10.0713H169.822V9.81348C169.822 9.40527 169.747 9.0472 169.597 8.73926C169.453 8.43132 169.239 8.19499 168.952 8.03027C168.673 7.8584 168.318 7.77246 167.889 7.77246C167.48 7.77246 167.14 7.8584 166.868 8.03027C166.596 8.20215 166.378 8.44564 166.213 8.76074C166.055 9.06868 165.941 9.43034 165.869 9.8457C165.798 10.2539 165.762 10.6943 165.762 11.167V11.5752C165.762 12.0264 165.823 12.4382 165.944 12.8105C166.066 13.1829 166.245 13.5016 166.481 13.7666C166.718 14.0316 167.004 14.2393 167.341 14.3896C167.677 14.54 168.061 14.6152 168.49 14.6152C169.02 14.6152 169.525 14.515 170.005 14.3145C170.485 14.1068 170.9 13.7845 171.251 13.3477L172.819 15.1416C172.583 15.4854 172.25 15.8184 171.82 16.1406C171.398 16.4557 170.889 16.7135 170.295 16.9141C169.701 17.1146 169.027 17.2148 168.275 17.2148ZM178.029 7.8584V17H174.667V5.37695H177.825L178.029 7.8584ZM177.589 10.7803L176.751 10.8018C176.751 9.92806 176.858 9.14388 177.073 8.44922C177.288 7.75456 177.592 7.16374 177.986 6.67676C178.387 6.18262 178.864 5.80664 179.415 5.54883C179.974 5.29102 180.59 5.16211 181.263 5.16211C181.807 5.16211 182.305 5.24089 182.756 5.39844C183.207 5.55599 183.594 5.81022 183.916 6.16113C184.245 6.50488 184.496 6.96322 184.668 7.53613C184.84 8.10189 184.926 8.80013 184.926 9.63086V17H181.553V9.62012C181.553 9.13314 181.485 8.75716 181.349 8.49219C181.213 8.22721 181.012 8.04102 180.747 7.93359C180.489 7.82617 180.174 7.77246 179.802 7.77246C179.408 7.77246 179.071 7.85124 178.792 8.00879C178.513 8.15918 178.284 8.37044 178.104 8.64258C177.925 8.91471 177.793 9.2334 177.707 9.59863C177.628 9.96387 177.589 10.3577 177.589 10.7803ZM193.025 5.37695V7.72949H186.129V5.37695H193.025ZM187.708 2.49805H191.07V13.3584C191.07 13.6807 191.11 13.9277 191.188 14.0996C191.267 14.2715 191.396 14.3932 191.575 14.4648C191.754 14.5293 191.983 14.5615 192.263 14.5615C192.463 14.5615 192.635 14.5544 192.778 14.54C192.922 14.5257 193.054 14.5078 193.176 14.4863V16.9141C192.889 17.0072 192.585 17.0788 192.263 17.1289C191.94 17.1862 191.59 17.2148 191.21 17.2148C190.487 17.2148 189.86 17.0967 189.33 16.8604C188.807 16.624 188.406 16.2516 188.127 15.7432C187.848 15.2275 187.708 14.5579 187.708 13.7344V2.49805Z" fill="white"/>
</svg>
