<svg width="32" height="17" viewBox="0 0 32 17" fill="none" xmlns="http://www.w3.org/2000/svg">
<path d="M10.457 11.0264H12.5195C12.4121 12.0146 12.1292 12.8991 11.6709 13.6797C11.2126 14.4603 10.5645 15.0798 9.72656 15.5381C8.88867 15.9893 7.8431 16.2148 6.58984 16.2148C5.67318 16.2148 4.83887 16.043 4.08691 15.6992C3.34212 15.3555 2.70117 14.8685 2.16406 14.2383C1.62695 13.6009 1.21159 12.8382 0.917969 11.9502C0.63151 11.055 0.488281 10.0596 0.488281 8.96387V7.40625C0.488281 6.31055 0.63151 5.31868 0.917969 4.43066C1.21159 3.53548 1.63053 2.76921 2.1748 2.13184C2.72624 1.49447 3.38867 1.00391 4.16211 0.660156C4.93555 0.316406 5.80566 0.144531 6.77246 0.144531C7.9541 0.144531 8.95312 0.366536 9.76953 0.810547C10.5859 1.25456 11.2197 1.87044 11.6709 2.6582C12.1292 3.4388 12.4121 4.34473 12.5195 5.37598H10.457C10.3568 4.64551 10.1706 4.01888 9.89844 3.49609C9.6263 2.96615 9.23958 2.55794 8.73828 2.27148C8.23698 1.98503 7.58171 1.8418 6.77246 1.8418C6.0778 1.8418 5.46549 1.97428 4.93555 2.23926C4.41276 2.50423 3.97233 2.88021 3.61426 3.36719C3.26335 3.85417 2.99837 4.43783 2.81934 5.11816C2.6403 5.7985 2.55078 6.55404 2.55078 7.38477V8.96387C2.55078 9.73014 2.62956 10.4499 2.78711 11.123C2.95182 11.7962 3.19889 12.387 3.52832 12.8955C3.85775 13.404 4.27669 13.805 4.78516 14.0986C5.29362 14.3851 5.89518 14.5283 6.58984 14.5283C7.4707 14.5283 8.17253 14.3887 8.69531 14.1094C9.2181 13.8301 9.61198 13.429 9.87695 12.9062C10.1491 12.3835 10.3424 11.7568 10.457 11.0264ZM16.4941 0.359375H19.3945L23.1543 11.542L26.9033 0.359375H29.8037L24.3252 16H21.9727L16.4941 0.359375ZM14.8184 0.359375H17.7725L18.3203 11.9502V16H14.8184V0.359375ZM28.5254 0.359375H31.4902V16H27.9775V11.9502L28.5254 0.359375Z" fill="white"/>
</svg>
