<svg width="56" height="56" viewBox="0 0 56 56" fill="none" xmlns="http://www.w3.org/2000/svg">
<g clip-path="url(#clip0_2_270)">
<g filter="url(#filter0_d_2_270)">
<path d="M16.4979 42.7108C15.1394 41.9152 13.0497 40.0139 9.91414 37.8734C8.14601 36.717 4.19097 34.7775 2.71172 33.5345C1.7229 32.818 1.04984 31.7157 0.855362 30.4944C0.431825 28.1955 1.70395 25.9982 3.82488 25.3652C5.52852 25.0222 7.31236 25.2123 8.95497 25.912C10.0836 26.3581 11.1784 26.8998 12.2281 27.5316C12.9965 27.9677 13.2305 28.1739 14.1019 28.6807C14.9733 29.1876 15.6614 29.7738 14.9111 28.7917C13.9982 27.265 12.4572 24.7034 10.8893 22.4994C9.69522 20.8253 9.47776 20.5735 8.51 19.3397C7.54225 18.1058 6.8251 17.0325 5.74291 15.6176C4.70682 14.2156 3.73995 12.761 2.84631 11.2597C1.58283 9.39166 0.950609 7.15737 1.05377 4.92483C1.66145 3.39863 3.10564 2.44007 4.71682 2.49354C6.51745 2.96457 8.15604 4.0015 9.40558 5.46065C11.1014 7.18801 12.5761 9.13518 13.7903 11.25C15.6772 14.2769 18.6654 18.5951 19.1154 19.5534C18.5981 18.3552 17.2936 15.9218 17.0181 14.6957C16.7197 13.4224 17.0709 12.1065 17.9459 11.2191C18.7278 10.5295 19.6613 10.0464 20.6721 9.80843C21.7096 9.60841 22.7978 9.82281 23.723 10.4096C25.2463 11.9925 26.5048 13.8278 27.4424 15.8335C26.756 14.0188 26.2825 12.1326 26.0325 10.217C26.2137 9.23356 26.7217 8.36116 27.4689 7.75024C28.3941 7.11739 29.429 6.66942 30.5232 6.42806C31.478 6.36313 32.4412 6.60297 33.2853 7.11581C34.6737 8.5533 35.8482 10.1973 36.767 11.9892C36.9627 12.4426 36.4355 10.6336 36.6181 9.2093C36.4927 7.95901 37.0152 6.76181 37.9887 6.06867C38.9622 5.37552 40.2389 5.29175 41.3378 5.84889C42.4367 6.40604 43.1908 7.51946 43.3162 8.76975C44.225 10.8747 44.1831 10.7776 44.7983 12.2025C45.4135 13.6274 45.9588 14.8904 46.4761 16.0886C47.183 18.0318 47.7512 20.0215 48.176 22.0408C48.3535 23.9132 48.2863 25.7914 47.9763 27.6237C47.2482 30.0143 46.876 32.5209 46.8723 35.0587C47.1009 36.2197 47.468 37.3522 47.9651 38.4293C48.3964 39.4366 48.9522 40.3852 49.618 41.25C48.4296 41.9306 47.1704 42.4757 45.8611 42.8763C44.586 43.1976 42.0293 41.3063 41.2967 40.701C40.9201 40.3687 40.4041 40.2791 39.9642 40.4695C39.5243 40.6599 39.236 41.0977 39.2197 41.6001C39.0791 43.1215 38.5472 46.0039 37.5647 46.583C35.6301 47.7279 31.3032 49.2935 27.974 50.7346C27.974 50.7346 27.1256 47.2582 25.3699 46.6345C23.6143 46.0107 21.7442 45.2059 20.4059 44.709L16.4979 42.7108Z" fill="white"/>
<path fill-rule="evenodd" clip-rule="evenodd" d="M16.4979 42.7108C15.1394 41.9152 13.0497 40.0139 9.91414 37.8734C8.14601 36.717 4.19097 34.7775 2.71172 33.5345C1.7229 32.818 1.04984 31.7157 0.855362 30.4944C0.431825 28.1955 1.70395 25.9982 3.82488 25.3652C5.52852 25.0222 7.31236 25.2123 8.95497 25.912C10.0836 26.3581 11.1784 26.8998 12.2281 27.5316C12.9965 27.9677 13.2305 28.1739 14.1019 28.6807C14.9733 29.1876 15.6614 29.7738 14.9111 28.7917C13.9982 27.265 12.4572 24.7034 10.8893 22.4994C9.69522 20.8253 9.47776 20.5735 8.51 19.3397C7.54225 18.1058 6.8251 17.0325 5.74291 15.6176C4.70682 14.2156 3.73995 12.761 2.84631 11.2597C1.58283 9.39166 0.950609 7.15737 1.05377 4.92483C1.66145 3.39863 3.10564 2.44007 4.71682 2.49354C6.51745 2.96457 8.15604 4.0015 9.40558 5.46065C11.1014 7.18801 12.5761 9.13518 13.7903 11.25C15.6772 14.2769 18.6654 18.5951 19.1154 19.5534C18.5981 18.3552 17.2936 15.9218 17.0181 14.6957C16.7197 13.4224 17.0709 12.1065 17.9459 11.2191C18.7278 10.5295 19.6613 10.0464 20.6721 9.80843C21.7096 9.60841 22.7978 9.82281 23.723 10.4096C25.2463 11.9925 26.5048 13.8278 27.4424 15.8335C26.756 14.0188 26.2825 12.1326 26.0325 10.217C26.2137 9.23356 26.7217 8.36116 27.4689 7.75024C28.3941 7.11739 29.429 6.66942 30.5232 6.42806C31.478 6.36313 32.4412 6.60297 33.2853 7.11581C34.6737 8.5533 35.8482 10.1973 36.767 11.9892C36.9627 12.4426 36.4355 10.6336 36.6181 9.2093C36.4927 7.95901 37.0152 6.76181 37.9887 6.06867C38.9622 5.37552 40.2389 5.29175 41.3378 5.84889C42.4367 6.40604 43.1908 7.51946 43.3162 8.76975C44.225 10.8747 44.1831 10.7776 44.7983 12.2025C45.4135 13.6274 45.9588 14.8904 46.4761 16.0886C47.183 18.0318 47.7512 20.0215 48.176 22.0408C48.3535 23.9132 48.2863 25.7914 47.9763 27.6237C47.2482 30.0143 46.876 32.5209 46.8723 35.0587C47.1009 36.2197 47.468 37.3522 47.9651 38.4293C48.3964 39.4366 48.9522 40.3852 49.618 41.25C48.4296 41.9306 47.1704 42.4757 45.8611 42.8763C44.586 43.1976 42.0293 41.3063 41.2967 40.701C40.9201 40.3687 40.4041 40.2791 39.9642 40.4695C39.5243 40.6599 39.236 41.0977 39.2197 41.6001C39.0791 43.1215 38.5472 46.0039 37.5647 46.583C35.6301 47.7279 31.3032 49.2935 27.974 50.7346C27.974 50.7346 27.1256 47.2582 25.3699 46.6345C23.6143 46.0107 21.7442 45.2059 20.4059 44.709L16.4979 42.7108Z" stroke="black" stroke-width="0.75" stroke-linecap="round" stroke-linejoin="round"/>
<path d="M43.1688 33.2794L38.3406 22.0967C38.0516 21.4273 37.3034 21.1071 36.6696 21.3815C36.0357 21.6558 35.7562 22.4209 36.0452 23.0903L40.8734 34.273C41.1624 34.9423 41.9105 35.2625 42.5444 34.9882C43.1782 34.7138 43.4578 33.9487 43.1688 33.2794Z" fill="black"/>
<path d="M37.1208 35.8886L32.229 24.7267C31.937 24.0605 31.1879 23.746 30.5557 24.0242C29.9236 24.3024 29.6478 25.068 29.9398 25.7342L34.8317 36.8961C35.1236 37.5623 35.8728 37.8768 36.5049 37.5986C37.137 37.3204 37.4128 36.5548 37.1208 35.8886Z" fill="black"/>
<path d="M23.8376 28.3857L28.7195 39.5245C29.0143 40.197 29.7656 40.5167 30.3977 40.2384C31.0298 39.9601 31.3033 39.1893 31.0085 38.5167L26.1267 27.378C25.8319 26.7054 25.0805 26.3858 24.4484 26.6641C23.8163 26.9423 23.5429 27.7132 23.8376 28.3857Z" fill="black"/>
</g>
</g>
<defs>
<filter id="filter0_d_2_270" x="-0.400403" y="2.11629" width="51.1933" height="50.7935" filterUnits="userSpaceOnUse" color-interpolation-filters="sRGB">
<feFlood flood-opacity="0" result="BackgroundImageFix"/>
<feColorMatrix in="SourceAlpha" type="matrix" values="0 0 0 0 0 0 0 0 0 0 0 0 0 0 0 0 0 0 127 0" result="hardAlpha"/>
<feOffset dy="1"/>
<feGaussianBlur stdDeviation="0.4"/>
<feColorMatrix type="matrix" values="0 0 0 0 0 0 0 0 0 0 0 0 0 0 0 0 0 0 0.5 0"/>
<feBlend mode="normal" in2="BackgroundImageFix" result="effect1_dropShadow_2_270"/>
<feBlend mode="normal" in="SourceGraphic" in2="effect1_dropShadow_2_270" result="shape"/>
</filter>
<clipPath id="clip0_2_270">
<rect width="56" height="56" fill="white"/>
</clipPath>
</defs>
</svg>
